<?xml version="1.0" encoding="UTF-8"?> <svg xmlns="http://www.w3.org/2000/svg" width="45" height="45" viewBox="0 0 45 45" fill="none"><path d="M10.0719 44.0903C9.57893 44.0903 9.08934 43.9365 8.6715 43.6344C7.89317 43.0703 7.52958 42.1007 7.74142 41.1651L10.6364 28.4128L0.818483 19.8027C0.0968009 19.1727 -0.178894 18.175 0.117401 17.2621C0.413696 16.3509 1.21984 15.7057 2.1743 15.6175L15.1646 14.4382L20.3005 2.41914C20.6792 1.53609 21.5416 0.96582 22.4999 0.96582C23.4581 0.96582 24.3205 1.53609 24.6992 2.41708L29.8351 14.4382L42.8234 15.6175C43.7799 15.7037 44.586 16.3509 44.8823 17.2621C45.1786 18.1733 44.9046 19.1727 44.1829 19.8027L34.365 28.4111L37.26 41.1631C37.4722 42.1007 37.1083 43.0703 36.3303 43.6327C35.554 44.195 34.5189 44.2383 33.7014 43.747L22.4999 37.0531L11.2983 43.7508C10.9196 43.9757 10.4977 44.0903 10.0719 44.0903ZM22.4999 34.1694C22.9256 34.1694 23.3472 34.2837 23.7262 34.5086L34.2978 40.8314L31.5655 28.7952C31.3705 27.9386 31.6613 27.0443 32.3233 26.4647L41.5935 18.3346L29.3287 17.2209C28.4457 17.1402 27.6862 16.585 27.3412 15.7713L22.4999 4.42901L17.6527 15.773C17.3114 16.5812 16.552 17.1364 15.671 17.2171L3.40446 18.3308L12.6744 26.4609C13.3384 27.0422 13.6289 27.9349 13.4321 28.7935L10.702 40.8294L21.2735 34.5086C21.6522 34.2837 22.0741 34.1694 22.4999 34.1694ZM15.0654 14.6706C15.0654 14.6706 15.0654 14.6726 15.0633 14.6744L15.0654 14.6706ZM29.9306 14.6651L29.9326 14.6689C29.9326 14.6668 29.9326 14.6668 29.9306 14.6651Z" fill="white"></path></svg> 