<svg width="70" height="70" viewBox="0 0 70 70" fill="none" xmlns="http://www.w3.org/2000/svg">
<g clip-path="url(#clip0)">
<path d="M51.9562 18.0127H39.1016C37.5938 18.0127 36.3672 19.2393 36.3672 20.7471V32.233C36.3672 33.7407 37.5938 34.9674 39.1016 34.9674H44.5377C44.155 40.9521 41.2224 41.9443 38.9792 42.1484C38.275 42.2125 37.7359 42.8029 37.7359 43.51V50.6202C37.7359 50.996 37.8906 51.3555 38.1638 51.6137C38.4182 51.8543 38.7547 51.9874 39.1029 51.9874C39.1285 51.9874 39.1541 51.9867 39.1798 51.9853C44.2983 51.6974 48.2179 49.9207 50.8297 46.7048C53.3916 43.5504 54.6905 38.9769 54.6905 33.1114V20.7471C54.6905 19.2393 53.4639 18.0127 51.9562 18.0127ZM51.9562 33.1114C51.9562 38.333 50.8631 42.3264 48.7072 44.9809C46.8136 47.3123 44.1101 48.6758 40.4701 49.1267V44.6845C43.8352 43.9639 47.3137 41.3449 47.3137 33.6002C47.3137 32.8451 46.7016 32.233 45.9465 32.233H39.1016V20.7471H51.9562V33.1114Z" fill="white"/>
<path d="M29.5304 18.0127H16.6758C15.168 18.0127 13.9414 19.2393 13.9414 20.7471V32.233C13.9414 33.7407 15.168 34.9674 16.6758 34.9674H22.1117C21.7291 40.9521 18.7964 41.9443 16.5533 42.1484C15.849 42.2125 15.31 42.8029 15.31 43.51V50.6202C15.31 50.996 15.4647 51.3555 15.7379 51.6137C15.9923 51.8543 16.3288 51.9874 16.677 51.9874C16.7026 51.9874 16.7281 51.9867 16.754 51.9853C21.8725 51.6974 25.7921 49.9207 28.404 46.7048C30.9658 43.5504 32.2648 38.9769 32.2648 33.1114V20.7471C32.2648 19.2393 31.0381 18.0127 29.5304 18.0127ZM29.5302 33.1114C29.5302 38.333 28.4372 42.3264 26.2813 44.9809C24.3877 47.3123 21.6842 48.6758 18.0442 49.1267V44.6845C21.4093 43.9639 24.8878 41.3449 24.8878 33.6002C24.8878 32.8451 24.2757 32.233 23.5206 32.233H16.6756V20.7471H29.5302V33.1114Z" fill="white"/>
<path d="M63.0711 14.088C62.6192 13.4831 61.7628 13.3591 61.1576 13.8107C60.5527 14.2626 60.4284 15.1192 60.8803 15.7242C70.3927 28.4607 69.075 46.556 57.8153 57.8156C51.7212 63.9099 43.6186 67.266 35.0001 67.266C26.3816 67.266 18.2789 63.9097 12.1848 57.8156C-0.395664 45.2353 -0.395664 24.7655 12.1848 12.1851C23.4572 0.912641 41.565 -0.39576 54.3052 9.14189C54.9098 9.59443 55.7666 9.47111 56.2191 8.86668C56.6715 8.26224 56.5484 7.40542 55.9439 6.95288C49.2701 1.9569 40.9908 -0.483397 32.6302 0.080159C24.1885 0.64973 16.2409 4.26184 10.2512 10.2515C3.64069 16.8623 0 25.6515 0 35.0004C0 44.3492 3.64069 53.1386 10.2512 59.7492C16.862 66.3599 25.6512 70.0004 35.0001 70.0004C44.3489 70.0004 53.1382 66.3599 59.7488 59.7491C65.7334 53.7644 69.3453 45.8233 69.9189 37.3888C70.487 29.0363 68.055 20.7612 63.0711 14.088Z" fill="white"/>
<path d="M59.7646 10.2668L59.7388 10.2408C59.2064 9.70559 58.3406 9.70326 57.8053 10.2358C57.27 10.7683 57.2678 11.634 57.8003 12.1693L57.8261 12.1952C58.0933 12.4638 58.4442 12.5981 58.7953 12.5981C59.1439 12.5981 59.4929 12.4655 59.7596 12.2003C60.295 11.6678 60.2972 10.8021 59.7646 10.2668Z" fill="white"/>
</g>
<defs>
<clipPath id="clip0">
<rect width="70" height="70" fill="white"/>
</clipPath>
</defs>
</svg>
