<svg width="18" height="16" viewBox="0 0 18 16" fill="none" xmlns="http://www.w3.org/2000/svg">
<path d="M0.75 7.25018H15.7121L9.98287 1.79318C9.68287 1.50743 9.67125 1.03268 9.957 0.732683C10.2424 0.433058 10.7171 0.421058 11.0175 0.706808L17.5605 6.93931C17.8436 7.22281 18 7.59931 18 8.00018C18 8.40068 17.8436 8.77756 17.5474 9.07343L11.0171 15.2932C10.872 15.4316 10.686 15.5002 10.5 15.5002C10.302 15.5002 10.104 15.4222 9.95662 15.2673C9.67088 14.9673 9.6825 14.4929 9.9825 14.2072L15.7357 8.75018H0.75C0.336 8.75018 0 8.41418 0 8.00018C0 7.58618 0.336 7.25018 0.75 7.25018Z" fill="white"/>
</svg>
