<svg width="14" height="9" viewBox="0 0 14 9" fill="none" xmlns="http://www.w3.org/2000/svg">
<path d="M13.7762 0.771078L13.3176 0.325047C13.1733 0.185752 12.9813 0.109013 12.7761 0.109013C12.571 0.109013 12.3787 0.185752 12.2344 0.325047L7.00313 5.37816L1.76584 0.31944C1.62174 0.180145 1.42949 0.103516 1.22438 0.103516C1.01928 0.103516 0.826917 0.180145 0.682705 0.31944L0.224002 0.762722C-0.0746673 1.05099 -0.0746673 1.52055 0.224002 1.80881L6.45963 7.85348C6.60373 7.99267 6.79575 8.09074 7.00267 8.09074H7.00506C7.21029 8.09074 7.4023 7.99256 7.5464 7.85348L13.7762 1.82519C13.9206 1.68601 13.9998 1.49493 14 1.29682C14 1.09859 13.9206 0.910153 13.7762 0.771078Z" fill="#293377"/>
</svg>
