<svg width="62" height="64" viewBox="0 0 62 64" fill="none" xmlns="http://www.w3.org/2000/svg">
<g filter="url(#filter0_d)">
<path d="M36.4998 22.2217L36.7403 22.369C38.1839 23.2537 39.3687 24.5083 40.1756 26.0042C42.6962 30.6777 40.9982 36.539 36.3642 39.0955M36.4998 22.2217L35.8811 38.2199M36.4998 22.2217H36.2178H36.1697H35.1697V23.2217V29.8092H35.1696L35.1697 29.818C35.1703 29.8836 35.1358 29.939 35.0885 29.9666L35.0878 29.967L31.7236 31.9355M36.4998 22.2217L31.7236 31.9355M36.3642 39.0955L35.8811 38.2199M36.3642 39.0955C36.3643 39.0954 36.3644 39.0954 36.3645 39.0953L35.8811 38.2199M36.3642 39.0955C36.3165 39.122 36.2807 39.1767 36.2803 39.2427M35.8811 38.2199C35.5117 38.4238 35.2814 38.8151 35.2803 39.2408M36.2803 39.2427V39.2408H35.2803M36.2803 39.2427V44.5886V45.3454L35.5519 45.551C33.0159 46.2668 30.3341 46.2668 27.7981 45.551L27.0698 45.3454V44.5886V39.3157M36.2803 39.2427C36.2803 39.2429 36.2803 39.2432 36.2803 39.2435L35.2803 39.2408M35.2803 39.2408L27.0698 39.3157M27.0698 39.3157C27.0698 39.3159 27.0698 39.3161 27.0698 39.3164L28.0698 39.3137M27.0698 39.3157L35.2803 44.5886C32.9219 45.2542 30.4282 45.2542 28.0698 44.5886V39.3137M27.0698 39.3157C27.0693 39.2504 27.0344 39.1961 26.9875 39.1693C25.4525 38.338 24.1726 37.0992 23.2849 35.5881C20.5958 31.0109 22.0804 25.0909 26.6173 22.3645L28.1324 21.4541V23.2217V29.8092V29.818L28.1324 29.818C28.1318 29.8836 28.1662 29.939 28.2135 29.9666L28.2143 29.967L31.5784 31.9355C31.5785 31.9356 31.5786 31.9356 31.5787 31.9357M27.0698 39.3157V39.3137H28.0698M28.0698 39.3137C28.0686 38.888 27.8383 38.4968 27.4689 38.2928C26.0928 37.5487 24.9441 36.4382 24.1471 35.0816C21.9438 31.3312 22.8652 26.58 26.1324 23.9231V23.2217H27.1324L27.6475 24.0788C27.4699 24.1856 27.2981 24.2985 27.1324 24.4173V29.8092C27.1287 30.2297 27.349 30.6198 27.7092 30.8301L31.5787 31.9357M31.7236 31.9355C31.6784 31.9619 31.624 31.962 31.5787 31.9357M31.7236 31.9355L31.5787 31.9357" fill="#293377"/>
<path d="M36.4998 22.2217L36.7403 22.369C38.1839 23.2537 39.3687 24.5083 40.1756 26.0042C42.6962 30.6777 40.9982 36.539 36.3642 39.0955M36.4998 22.2217L35.8811 38.2199M36.4998 22.2217H36.2178H36.1697H35.1697V23.2217V29.8092H35.1696L35.1697 29.818C35.1703 29.8836 35.1358 29.939 35.0885 29.9666L35.0878 29.967L31.7236 31.9355M36.4998 22.2217L31.7236 31.9355M36.3642 39.0955L35.8811 38.2199M36.3642 39.0955C36.3643 39.0954 36.3644 39.0954 36.3645 39.0953L35.8811 38.2199M36.3642 39.0955C36.3165 39.122 36.2807 39.1767 36.2803 39.2427M35.8811 38.2199C35.5117 38.4238 35.2814 38.8151 35.2803 39.2408M36.2803 39.2427V39.2408H35.2803M36.2803 39.2427V44.5886V45.3454L35.5519 45.551C33.0159 46.2668 30.3341 46.2668 27.7981 45.551L27.0698 45.3454V44.5886V39.3157M36.2803 39.2427C36.2803 39.2429 36.2803 39.2432 36.2803 39.2435L35.2803 39.2408M35.2803 39.2408L27.0698 39.3157M27.0698 39.3157C27.0698 39.3159 27.0698 39.3161 27.0698 39.3164L28.0698 39.3137M27.0698 39.3157L35.2803 44.5886C32.9219 45.2542 30.4282 45.2542 28.0698 44.5886V39.3137M27.0698 39.3157C27.0693 39.2504 27.0344 39.1961 26.9875 39.1693C25.4525 38.338 24.1726 37.0992 23.2849 35.5881C20.5958 31.0109 22.0804 25.0909 26.6173 22.3645L28.1324 21.4541V23.2217V29.8092V29.818L28.1324 29.818C28.1318 29.8836 28.1662 29.939 28.2135 29.9666L28.2143 29.967L31.5784 31.9355C31.5785 31.9356 31.5786 31.9356 31.5787 31.9357M27.0698 39.3157V39.3137H28.0698M28.0698 39.3137C28.0686 38.888 27.8383 38.4968 27.4689 38.2928C26.0928 37.5487 24.9441 36.4382 24.1471 35.0816C21.9438 31.3312 22.8652 26.58 26.1324 23.9231V23.2217H27.1324L27.6475 24.0788C27.4699 24.1856 27.2981 24.2985 27.1324 24.4173V29.8092C27.1287 30.2297 27.349 30.6198 27.7092 30.8301L31.5787 31.9357M31.7236 31.9355C31.6784 31.9619 31.624 31.962 31.5787 31.9357M31.7236 31.9355L31.5787 31.9357" fill="url(#paint0_linear)"/>
<path d="M36.4998 22.2217L36.7403 22.369C38.1839 23.2537 39.3687 24.5083 40.1756 26.0042C42.6962 30.6777 40.9982 36.539 36.3642 39.0955M36.4998 22.2217L35.8811 38.2199M36.4998 22.2217H36.2178H36.1697H35.1697V23.2217V29.8092H35.1696L35.1697 29.818C35.1703 29.8836 35.1358 29.939 35.0885 29.9666L35.0878 29.967L31.7236 31.9355M36.4998 22.2217L31.7236 31.9355M36.3642 39.0955L35.8811 38.2199M36.3642 39.0955C36.3643 39.0954 36.3644 39.0954 36.3645 39.0953L35.8811 38.2199M36.3642 39.0955C36.3165 39.122 36.2807 39.1767 36.2803 39.2427M35.8811 38.2199C35.5117 38.4238 35.2814 38.8151 35.2803 39.2408M36.2803 39.2427V39.2408H35.2803M36.2803 39.2427V44.5886V45.3454L35.5519 45.551C33.0159 46.2668 30.3341 46.2668 27.7981 45.551L27.0698 45.3454V44.5886V39.3157M36.2803 39.2427C36.2803 39.2429 36.2803 39.2432 36.2803 39.2435L35.2803 39.2408M35.2803 39.2408L27.0698 39.3157M27.0698 39.3157C27.0698 39.3159 27.0698 39.3161 27.0698 39.3164L28.0698 39.3137M27.0698 39.3157L35.2803 44.5886C32.9219 45.2542 30.4282 45.2542 28.0698 44.5886V39.3137M27.0698 39.3157C27.0693 39.2504 27.0344 39.1961 26.9875 39.1693C25.4525 38.338 24.1726 37.0992 23.2849 35.5881C20.5958 31.0109 22.0804 25.0909 26.6173 22.3645L28.1324 21.4541V23.2217V29.8092V29.818L28.1324 29.818C28.1318 29.8836 28.1662 29.939 28.2135 29.9666L28.2143 29.967L31.5784 31.9355C31.5785 31.9356 31.5786 31.9356 31.5787 31.9357M27.0698 39.3157V39.3137H28.0698M28.0698 39.3137C28.0686 38.888 27.8383 38.4968 27.4689 38.2928C26.0928 37.5487 24.9441 36.4382 24.1471 35.0816C21.9438 31.3312 22.8652 26.58 26.1324 23.9231V23.2217H27.1324L27.6475 24.0788C27.4699 24.1856 27.2981 24.2985 27.1324 24.4173V29.8092C27.1287 30.2297 27.349 30.6198 27.7092 30.8301L31.5787 31.9357M31.7236 31.9355C31.6784 31.9619 31.624 31.962 31.5787 31.9357M31.7236 31.9355L31.5787 31.9357" stroke="url(#paint1_linear)" stroke-width="2"/>
<path d="M58.1393 19.417L58.1398 19.418C59.147 21.1739 58.8276 23.4007 57.3618 24.7958L57.3625 24.7952L56.6716 24.0722L57.3608 24.7968L54.6927 27.3464C55.0683 29.7601 55.0681 32.2183 54.6924 34.6319L57.3413 37.1835L57.3473 37.1893L57.3473 37.1893C58.7516 38.5648 59.0681 40.7159 58.1262 42.4422L58.1216 42.4507L58.1168 42.459L54.8 48.2687L54.7951 48.2774L54.79 48.2859C53.7675 49.997 51.7399 50.8219 49.8202 50.2927L49.8081 50.2893L49.7962 50.2857L46.3161 49.2319C45.3867 50.0325 44.3948 50.7565 43.3497 51.3967L43.3397 51.4028L43.3295 51.4087C42.2852 52.0151 41.1958 52.5378 40.0711 52.972L39.2104 56.5814C39.2101 56.5824 39.2099 56.5833 39.2097 56.5843C38.7462 58.5598 36.9926 59.9641 34.9656 59.9547H28.3364C26.3098 59.9639 24.5561 58.56 24.0926 56.5847C24.0923 56.5836 24.092 56.5825 24.0918 56.5814L23.2312 52.9942C20.9781 52.114 18.8754 50.8831 16.9992 49.3463L13.5006 50.3845L13.4872 50.3885L13.4872 50.3884C11.5638 50.9299 9.52627 50.1009 8.50943 48.3785L8.50574 48.3722L8.50213 48.3659L5.18629 42.558L58.1393 19.417ZM58.1393 19.417L54.7985 13.6073L54.7985 13.6073M58.1393 19.417L54.7985 13.6073M54.7985 13.6073L54.7927 13.5974M54.7985 13.6073L54.7927 13.5974M54.7927 13.5974C53.7759 11.875 51.7383 11.046 49.815 11.5876L49.8055 11.5902M54.7927 13.5974L49.8055 11.5902M49.8055 11.5902L49.7962 11.5931M49.8055 11.5902L49.7962 11.5931M49.7962 11.5931L46.3005 12.6516C44.4318 11.1193 42.3384 9.88984 40.0953 9.00763L39.2344 5.41899C39.2341 5.41798 39.2339 5.41698 39.2337 5.41597C38.7678 3.43015 36.9991 2.02314 34.9619 2.04568H28.3366C26.3086 2.03615 24.5541 3.44183 24.0917 5.41883C24.0917 5.41887 24.0917 5.41891 24.0917 5.41895L23.2526 9.00425C20.9897 9.87601 18.8791 11.1072 17.0007 12.6513L13.5059 11.5932L13.4966 11.5903M49.7962 11.5931L13.4966 11.5903M13.4966 11.5903L13.4871 11.5877M13.4966 11.5903L13.4871 11.5877M13.4871 11.5877C11.5636 11.0461 9.52626 11.8753 8.50945 13.5975L8.50575 13.6038M13.4871 11.5877L8.50575 13.6038M8.50575 13.6038L8.50213 13.6101M8.50575 13.6038L8.50213 13.6101M8.50213 13.6101L5.18629 19.4181M8.50213 13.6101L5.18629 19.4181M5.18629 19.4181C5.18614 19.4184 5.18598 19.4186 5.18582 19.4189M5.18629 19.4181L5.18582 19.4189M5.18582 19.4189C4.17951 21.1742 4.49876 23.3996 5.96289 24.7945C5.9637 24.7953 5.96451 24.7961 5.96532 24.7969L8.60953 27.3438C8.23237 29.7583 8.23237 32.2177 8.60953 34.6323L5.96535 37.1792C5.96452 37.18 5.96369 37.1808 5.96286 37.1816C4.49885 38.5763 4.17966 40.8012 5.1853 42.5562L5.18582 19.4189ZM36.6975 45.4459L36.5571 45.4962L36.4375 45.5853C36.418 45.5999 36.3963 45.6077 36.3749 45.6095L36.2644 45.6187L36.1587 45.6519C33.2226 46.5732 30.0797 46.5732 27.1435 45.6519L27.0292 45.616L26.9097 45.6082C26.8835 45.6065 26.857 45.5972 26.8337 45.5801L26.7169 45.4947L26.5807 45.4459C18.6979 42.6201 14.5583 33.8567 17.3593 25.8642C20.1586 17.8768 28.8202 13.7116 36.6976 16.5354C44.5804 19.3612 48.72 28.1246 45.9189 36.1171C44.3908 40.4776 41.0008 43.9033 36.6975 45.4459Z" fill="#293377"/>
<path d="M58.1393 19.417L58.1398 19.418C59.147 21.1739 58.8276 23.4007 57.3618 24.7958L57.3625 24.7952L56.6716 24.0722L57.3608 24.7968L54.6927 27.3464C55.0683 29.7601 55.0681 32.2183 54.6924 34.6319L57.3413 37.1835L57.3473 37.1893L57.3473 37.1893C58.7516 38.5648 59.0681 40.7159 58.1262 42.4422L58.1216 42.4507L58.1168 42.459L54.8 48.2687L54.7951 48.2774L54.79 48.2859C53.7675 49.997 51.7399 50.8219 49.8202 50.2927L49.8081 50.2893L49.7962 50.2857L46.3161 49.2319C45.3867 50.0325 44.3948 50.7565 43.3497 51.3967L43.3397 51.4028L43.3295 51.4087C42.2852 52.0151 41.1958 52.5378 40.0711 52.972L39.2104 56.5814C39.2101 56.5824 39.2099 56.5833 39.2097 56.5843C38.7462 58.5598 36.9926 59.9641 34.9656 59.9547H28.3364C26.3098 59.9639 24.5561 58.56 24.0926 56.5847C24.0923 56.5836 24.092 56.5825 24.0918 56.5814L23.2312 52.9942C20.9781 52.114 18.8754 50.8831 16.9992 49.3463L13.5006 50.3845L13.4872 50.3885L13.4872 50.3884C11.5638 50.9299 9.52627 50.1009 8.50943 48.3785L8.50574 48.3722L8.50213 48.3659L5.18629 42.558L58.1393 19.417ZM58.1393 19.417L54.7985 13.6073L54.7985 13.6073M58.1393 19.417L54.7985 13.6073M54.7985 13.6073L54.7927 13.5974M54.7985 13.6073L54.7927 13.5974M54.7927 13.5974C53.7759 11.875 51.7383 11.046 49.815 11.5876L49.8055 11.5902M54.7927 13.5974L49.8055 11.5902M49.8055 11.5902L49.7962 11.5931M49.8055 11.5902L49.7962 11.5931M49.7962 11.5931L46.3005 12.6516C44.4318 11.1193 42.3384 9.88984 40.0953 9.00763L39.2344 5.41899C39.2341 5.41798 39.2339 5.41698 39.2337 5.41597C38.7678 3.43015 36.9991 2.02314 34.9619 2.04568H28.3366C26.3086 2.03615 24.5541 3.44183 24.0917 5.41883C24.0917 5.41887 24.0917 5.41891 24.0917 5.41895L23.2526 9.00425C20.9897 9.87601 18.8791 11.1072 17.0007 12.6513L13.5059 11.5932L13.4966 11.5903M49.7962 11.5931L13.4966 11.5903M13.4966 11.5903L13.4871 11.5877M13.4966 11.5903L13.4871 11.5877M13.4871 11.5877C11.5636 11.0461 9.52626 11.8753 8.50945 13.5975L8.50575 13.6038M13.4871 11.5877L8.50575 13.6038M8.50575 13.6038L8.50213 13.6101M8.50575 13.6038L8.50213 13.6101M8.50213 13.6101L5.18629 19.4181M8.50213 13.6101L5.18629 19.4181M5.18629 19.4181C5.18614 19.4184 5.18598 19.4186 5.18582 19.4189M5.18629 19.4181L5.18582 19.4189M5.18582 19.4189C4.17951 21.1742 4.49876 23.3996 5.96289 24.7945C5.9637 24.7953 5.96451 24.7961 5.96532 24.7969L8.60953 27.3438C8.23237 29.7583 8.23237 32.2177 8.60953 34.6323L5.96535 37.1792C5.96452 37.18 5.96369 37.1808 5.96286 37.1816C4.49885 38.5763 4.17966 40.8012 5.1853 42.5562L5.18582 19.4189ZM36.6975 45.4459L36.5571 45.4962L36.4375 45.5853C36.418 45.5999 36.3963 45.6077 36.3749 45.6095L36.2644 45.6187L36.1587 45.6519C33.2226 46.5732 30.0797 46.5732 27.1435 45.6519L27.0292 45.616L26.9097 45.6082C26.8835 45.6065 26.857 45.5972 26.8337 45.5801L26.7169 45.4947L26.5807 45.4459C18.6979 42.6201 14.5583 33.8567 17.3593 25.8642C20.1586 17.8768 28.8202 13.7116 36.6976 16.5354C44.5804 19.3612 48.72 28.1246 45.9189 36.1171C44.3908 40.4776 41.0008 43.9033 36.6975 45.4459Z" fill="url(#paint2_linear)"/>
<path d="M58.1393 19.417L58.1398 19.418C59.147 21.1739 58.8276 23.4007 57.3618 24.7958L57.3625 24.7952L56.6716 24.0722L57.3608 24.7968L54.6927 27.3464C55.0683 29.7601 55.0681 32.2183 54.6924 34.6319L57.3413 37.1835L57.3473 37.1893L57.3473 37.1893C58.7516 38.5648 59.0681 40.7159 58.1262 42.4422L58.1216 42.4507L58.1168 42.459L54.8 48.2687L54.7951 48.2774L54.79 48.2859C53.7675 49.997 51.7399 50.8219 49.8202 50.2927L49.8081 50.2893L49.7962 50.2857L46.3161 49.2319C45.3867 50.0325 44.3948 50.7565 43.3497 51.3967L43.3397 51.4028L43.3295 51.4087C42.2852 52.0151 41.1958 52.5378 40.0711 52.972L39.2104 56.5814C39.2101 56.5824 39.2099 56.5833 39.2097 56.5843C38.7462 58.5598 36.9926 59.9641 34.9656 59.9547H28.3364C26.3098 59.9639 24.5561 58.56 24.0926 56.5847C24.0923 56.5836 24.092 56.5825 24.0918 56.5814L23.2312 52.9942C20.9781 52.114 18.8754 50.8831 16.9992 49.3463L13.5006 50.3845L13.4872 50.3885L13.4872 50.3884C11.5638 50.9299 9.52627 50.1009 8.50943 48.3785L8.50574 48.3722L8.50213 48.3659L5.18629 42.558L58.1393 19.417ZM58.1393 19.417L54.7985 13.6073L54.7985 13.6073M58.1393 19.417L54.7985 13.6073M54.7985 13.6073L54.7927 13.5974M54.7985 13.6073L54.7927 13.5974M54.7927 13.5974C53.7759 11.875 51.7383 11.046 49.815 11.5876L49.8055 11.5902M54.7927 13.5974L49.8055 11.5902M49.8055 11.5902L49.7962 11.5931M49.8055 11.5902L49.7962 11.5931M49.7962 11.5931L46.3005 12.6516C44.4318 11.1193 42.3384 9.88984 40.0953 9.00763L39.2344 5.41899C39.2341 5.41798 39.2339 5.41698 39.2337 5.41597C38.7678 3.43015 36.9991 2.02314 34.9619 2.04568H28.3366C26.3086 2.03615 24.5541 3.44183 24.0917 5.41883C24.0917 5.41887 24.0917 5.41891 24.0917 5.41895L23.2526 9.00425C20.9897 9.87601 18.8791 11.1072 17.0007 12.6513L13.5059 11.5932L13.4966 11.5903M49.7962 11.5931L13.4966 11.5903M13.4966 11.5903L13.4871 11.5877M13.4966 11.5903L13.4871 11.5877M13.4871 11.5877C11.5636 11.0461 9.52626 11.8753 8.50945 13.5975L8.50575 13.6038M13.4871 11.5877L8.50575 13.6038M8.50575 13.6038L8.50213 13.6101M8.50575 13.6038L8.50213 13.6101M8.50213 13.6101L5.18629 19.4181M8.50213 13.6101L5.18629 19.4181M5.18629 19.4181C5.18614 19.4184 5.18598 19.4186 5.18582 19.4189M5.18629 19.4181L5.18582 19.4189M5.18582 19.4189C4.17951 21.1742 4.49876 23.3996 5.96289 24.7945C5.9637 24.7953 5.96451 24.7961 5.96532 24.7969L8.60953 27.3438C8.23237 29.7583 8.23237 32.2177 8.60953 34.6323L5.96535 37.1792C5.96452 37.18 5.96369 37.1808 5.96286 37.1816C4.49885 38.5763 4.17966 40.8012 5.1853 42.5562L5.18582 19.4189ZM36.6975 45.4459L36.5571 45.4962L36.4375 45.5853C36.418 45.5999 36.3963 45.6077 36.3749 45.6095L36.2644 45.6187L36.1587 45.6519C33.2226 46.5732 30.0797 46.5732 27.1435 45.6519L27.0292 45.616L26.9097 45.6082C26.8835 45.6065 26.857 45.5972 26.8337 45.5801L26.7169 45.4947L26.5807 45.4459C18.6979 42.6201 14.5583 33.8567 17.3593 25.8642C20.1586 17.8768 28.8202 13.7116 36.6976 16.5354C44.5804 19.3612 48.72 28.1246 45.9189 36.1171C44.3908 40.4776 41.0008 43.9033 36.6975 45.4459Z" stroke="url(#paint3_linear)" stroke-width="2"/>
</g>
<defs>
<filter id="filter0_d" x="-1" y="0" width="64" height="64" filterUnits="userSpaceOnUse" color-interpolation-filters="sRGB">
<feFlood flood-opacity="0" result="BackgroundImageFix"/>
<feColorMatrix in="SourceAlpha" type="matrix" values="0 0 0 0 0 0 0 0 0 0 0 0 0 0 0 0 0 0 127 0"/>
<feOffset dx="-1" dy="1"/>
<feGaussianBlur stdDeviation="1"/>
<feColorMatrix type="matrix" values="0 0 0 0 0 0 0 0 0 0 0 0 0 0 0 0 0 0 0.2 0"/>
<feBlend mode="normal" in2="BackgroundImageFix" result="effect1_dropShadow"/>
<feBlend mode="normal" in="SourceGraphic" in2="effect1_dropShadow" result="shape"/>
</filter>
<linearGradient id="paint0_linear" x1="31.6436" y1="23.2217" x2="31.6436" y2="45.0878" gradientUnits="userSpaceOnUse">
<stop stop-color="white" stop-opacity="0.49"/>
<stop offset="0.46875" stop-color="white" stop-opacity="0"/>
</linearGradient>
<linearGradient id="paint1_linear" x1="31.6436" y1="23.2217" x2="31.6436" y2="45.0878" gradientUnits="userSpaceOnUse">
<stop stop-color="white"/>
<stop offset="0.53125" stop-color="#8D8D8D"/>
<stop offset="1" stop-color="white"/>
</linearGradient>
<linearGradient id="paint2_linear" x1="31.6631" y1="3.04541" x2="31.6631" y2="58.9547" gradientUnits="userSpaceOnUse">
<stop stop-color="white" stop-opacity="0.49"/>
<stop offset="0.46875" stop-color="white" stop-opacity="0"/>
</linearGradient>
<linearGradient id="paint3_linear" x1="31.6631" y1="3.04541" x2="31.6631" y2="58.9547" gradientUnits="userSpaceOnUse">
<stop stop-color="white"/>
<stop offset="0.53125" stop-color="#8D8D8D"/>
<stop offset="1" stop-color="white"/>
</linearGradient>
</defs>
</svg>
