<svg width="10" height="14" viewBox="0 0 10 14" fill="none" xmlns="http://www.w3.org/2000/svg">
<path d="M1.55636 0.223774L1.09459 0.682364C0.950373 0.82669 0.870925 1.01871 0.870925 1.22393C0.870925 1.42904 0.950373 1.62128 1.09459 1.76561L6.32607 6.99687L1.08878 12.2342C0.944568 12.3783 0.865234 12.5705 0.865234 12.7756C0.865234 12.9807 0.944568 13.1731 1.08878 13.3173L1.54771 13.776C1.84615 14.0747 2.33229 14.0747 2.63073 13.776L8.88878 7.54037C9.03288 7.39627 9.13441 7.20425 9.13441 6.99733L9.13441 6.99493C9.13441 6.78971 9.03276 6.59769 8.88878 6.4536L2.64769 0.223774C2.50359 0.0794477 2.30577 0.000226912 2.10066 -5.40021e-08C1.89544 -4.50316e-08 1.70035 0.0794477 1.55636 0.223774Z" fill="white"/>
</svg>
