<svg width="57" height="60" viewBox="0 0 57 60" fill="none" xmlns="http://www.w3.org/2000/svg">
<path d="M33.4998 21.2217L33.7403 21.369C35.1839 22.2537 36.3687 23.5083 37.1756 25.0042C39.6962 29.6777 37.9982 35.539 33.3642 38.0955M33.4998 21.2217L32.8811 37.2199M33.4998 21.2217H33.2178H33.1697H32.1697V22.2217V28.8092H32.1696L32.1697 28.818C32.1703 28.8836 32.1358 28.939 32.0885 28.9666L32.0878 28.967L28.7236 30.9355M33.4998 21.2217L28.7236 30.9355M33.3642 38.0955L32.8811 37.2199M33.3642 38.0955C33.3643 38.0954 33.3644 38.0954 33.3645 38.0953L32.8811 37.2199M33.3642 38.0955C33.3165 38.122 33.2807 38.1767 33.2803 38.2427M32.8811 37.2199C32.5117 37.4238 32.2814 37.8151 32.2803 38.2408M33.2803 38.2427V38.2408H32.2803M33.2803 38.2427V43.5886V44.3454L32.5519 44.551C30.0159 45.2668 27.3341 45.2668 24.7981 44.551L24.0698 44.3454V43.5886V38.3157M33.2803 38.2427C33.2803 38.2429 33.2803 38.2432 33.2803 38.2435L32.2803 38.2408M32.2803 38.2408L24.0698 38.3157M24.0698 38.3157C24.0698 38.3159 24.0698 38.3161 24.0698 38.3164L25.0698 38.3137M24.0698 38.3157L32.2803 43.5886C29.9219 44.2542 27.4282 44.2542 25.0698 43.5886V38.3137M24.0698 38.3157C24.0693 38.2504 24.0344 38.1961 23.9875 38.1693C22.4525 37.338 21.1726 36.0992 20.2849 34.5881C17.5958 30.0109 19.0804 24.0909 23.6173 21.3645L25.1324 20.4541V22.2217V28.8092V28.818L25.1324 28.818C25.1318 28.8836 25.1662 28.939 25.2135 28.9666L25.2143 28.967L28.5784 30.9355C28.5785 30.9356 28.5786 30.9356 28.5787 30.9357M24.0698 38.3157V38.3137H25.0698M25.0698 38.3137C25.0686 37.888 24.8383 37.4968 24.4689 37.2928C23.0928 36.5487 21.9441 35.4382 21.1471 34.0816C18.9438 30.3312 19.8652 25.58 23.1324 22.9231V22.2217H24.1324L24.6475 23.0788C24.4699 23.1856 24.2981 23.2985 24.1324 23.4173V28.8092C24.1287 29.2297 24.349 29.6198 24.7092 29.8301L28.5787 30.9357M28.7236 30.9355C28.6784 30.9619 28.624 30.962 28.5787 30.9357M28.7236 30.9355L28.5787 30.9357" fill="#293377"/>
<path d="M33.4998 21.2217L33.7403 21.369C35.1839 22.2537 36.3687 23.5083 37.1756 25.0042C39.6962 29.6777 37.9982 35.539 33.3642 38.0955M33.4998 21.2217L32.8811 37.2199M33.4998 21.2217H33.2178H33.1697H32.1697V22.2217V28.8092H32.1696L32.1697 28.818C32.1703 28.8836 32.1358 28.939 32.0885 28.9666L32.0878 28.967L28.7236 30.9355M33.4998 21.2217L28.7236 30.9355M33.3642 38.0955L32.8811 37.2199M33.3642 38.0955C33.3643 38.0954 33.3644 38.0954 33.3645 38.0953L32.8811 37.2199M33.3642 38.0955C33.3165 38.122 33.2807 38.1767 33.2803 38.2427M32.8811 37.2199C32.5117 37.4238 32.2814 37.8151 32.2803 38.2408M33.2803 38.2427V38.2408H32.2803M33.2803 38.2427V43.5886V44.3454L32.5519 44.551C30.0159 45.2668 27.3341 45.2668 24.7981 44.551L24.0698 44.3454V43.5886V38.3157M33.2803 38.2427C33.2803 38.2429 33.2803 38.2432 33.2803 38.2435L32.2803 38.2408M32.2803 38.2408L24.0698 38.3157M24.0698 38.3157C24.0698 38.3159 24.0698 38.3161 24.0698 38.3164L25.0698 38.3137M24.0698 38.3157L32.2803 43.5886C29.9219 44.2542 27.4282 44.2542 25.0698 43.5886V38.3137M24.0698 38.3157C24.0693 38.2504 24.0344 38.1961 23.9875 38.1693C22.4525 37.338 21.1726 36.0992 20.2849 34.5881C17.5958 30.0109 19.0804 24.0909 23.6173 21.3645L25.1324 20.4541V22.2217V28.8092V28.818L25.1324 28.818C25.1318 28.8836 25.1662 28.939 25.2135 28.9666L25.2143 28.967L28.5784 30.9355C28.5785 30.9356 28.5786 30.9356 28.5787 30.9357M24.0698 38.3157V38.3137H25.0698M25.0698 38.3137C25.0686 37.888 24.8383 37.4968 24.4689 37.2928C23.0928 36.5487 21.9441 35.4382 21.1471 34.0816C18.9438 30.3312 19.8652 25.58 23.1324 22.9231V22.2217H24.1324L24.6475 23.0788C24.4699 23.1856 24.2981 23.2985 24.1324 23.4173V28.8092C24.1287 29.2297 24.349 29.6198 24.7092 29.8301L28.5787 30.9357M28.7236 30.9355C28.6784 30.9619 28.624 30.962 28.5787 30.9357M28.7236 30.9355L28.5787 30.9357" fill="url(#paint0_linear)"/>
<path d="M33.4998 21.2217L33.7403 21.369C35.1839 22.2537 36.3687 23.5083 37.1756 25.0042C39.6962 29.6777 37.9982 35.539 33.3642 38.0955M33.4998 21.2217L32.8811 37.2199M33.4998 21.2217H33.2178H33.1697H32.1697V22.2217V28.8092H32.1696L32.1697 28.818C32.1703 28.8836 32.1358 28.939 32.0885 28.9666L32.0878 28.967L28.7236 30.9355M33.4998 21.2217L28.7236 30.9355M33.3642 38.0955L32.8811 37.2199M33.3642 38.0955C33.3643 38.0954 33.3644 38.0954 33.3645 38.0953L32.8811 37.2199M33.3642 38.0955C33.3165 38.122 33.2807 38.1767 33.2803 38.2427M32.8811 37.2199C32.5117 37.4238 32.2814 37.8151 32.2803 38.2408M33.2803 38.2427V38.2408H32.2803M33.2803 38.2427V43.5886V44.3454L32.5519 44.551C30.0159 45.2668 27.3341 45.2668 24.7981 44.551L24.0698 44.3454V43.5886V38.3157M33.2803 38.2427C33.2803 38.2429 33.2803 38.2432 33.2803 38.2435L32.2803 38.2408M32.2803 38.2408L24.0698 38.3157M24.0698 38.3157C24.0698 38.3159 24.0698 38.3161 24.0698 38.3164L25.0698 38.3137M24.0698 38.3157L32.2803 43.5886C29.9219 44.2542 27.4282 44.2542 25.0698 43.5886V38.3137M24.0698 38.3157C24.0693 38.2504 24.0344 38.1961 23.9875 38.1693C22.4525 37.338 21.1726 36.0992 20.2849 34.5881C17.5958 30.0109 19.0804 24.0909 23.6173 21.3645L25.1324 20.4541V22.2217V28.8092V28.818L25.1324 28.818C25.1318 28.8836 25.1662 28.939 25.2135 28.9666L25.2143 28.967L28.5784 30.9355C28.5785 30.9356 28.5786 30.9356 28.5787 30.9357M24.0698 38.3157V38.3137H25.0698M25.0698 38.3137C25.0686 37.888 24.8383 37.4968 24.4689 37.2928C23.0928 36.5487 21.9441 35.4382 21.1471 34.0816C18.9438 30.3312 19.8652 25.58 23.1324 22.9231V22.2217H24.1324L24.6475 23.0788C24.4699 23.1856 24.2981 23.2985 24.1324 23.4173V28.8092C24.1287 29.2297 24.349 29.6198 24.7092 29.8301L28.5787 30.9357M28.7236 30.9355C28.6784 30.9619 28.624 30.962 28.5787 30.9357M28.7236 30.9355L28.5787 30.9357" stroke="url(#paint1_linear)" stroke-width="2"/>
<path d="M55.1393 18.417L55.1398 18.418C56.147 20.1739 55.8276 22.4007 54.3618 23.7958L54.3625 23.7952L53.6716 23.0722L54.3608 23.7968L51.6927 26.3464C52.0683 28.7601 52.0681 31.2183 51.6924 33.6319L54.3413 36.1835L54.3473 36.1893L54.3473 36.1893C55.7516 37.5648 56.0681 39.7159 55.1262 41.4422L55.1216 41.4507L55.1168 41.459L51.8 47.2687L51.7951 47.2774L51.79 47.2859C50.7675 48.997 48.7399 49.8219 46.8202 49.2927L46.8081 49.2893L46.7962 49.2857L43.3161 48.2319C42.3867 49.0325 41.3948 49.7565 40.3497 50.3967L40.3397 50.4028L40.3295 50.4087C39.2852 51.0151 38.1958 51.5378 37.0711 51.972L36.2104 55.5814C36.2101 55.5824 36.2099 55.5833 36.2097 55.5843C35.7462 57.5598 33.9926 58.9641 31.9656 58.9547H25.3364C23.3098 58.9639 21.5561 57.56 21.0926 55.5847C21.0923 55.5836 21.092 55.5825 21.0918 55.5814L20.2312 51.9942C17.9781 51.114 15.8754 49.8831 13.9992 48.3463L10.5006 49.3845L10.4872 49.3885L10.4872 49.3884C8.56379 49.9299 6.52627 49.1009 5.50943 47.3785L5.50574 47.3722L5.50213 47.3659L2.18629 41.558L55.1393 18.417ZM55.1393 18.417L51.7985 12.6073L51.7985 12.6073M55.1393 18.417L51.7985 12.6073M51.7985 12.6073L51.7927 12.5974M51.7985 12.6073L51.7927 12.5974M51.7927 12.5974C50.7759 10.875 48.7383 10.046 46.815 10.5876L46.8055 10.5902M51.7927 12.5974L46.8055 10.5902M46.8055 10.5902L46.7962 10.5931M46.8055 10.5902L46.7962 10.5931M46.7962 10.5931L43.3005 11.6516C41.4318 10.1193 39.3384 8.88984 37.0953 8.00763L36.2344 4.41899C36.2341 4.41798 36.2339 4.41698 36.2337 4.41597C35.7678 2.43015 33.9991 1.02314 31.9619 1.04568H25.3366C23.3086 1.03615 21.5541 2.44183 21.0917 4.41883C21.0917 4.41887 21.0917 4.41891 21.0917 4.41895L20.2526 8.00425C17.9897 8.87601 15.8791 10.1072 14.0007 11.6513L10.5059 10.5932L10.4966 10.5903M46.7962 10.5931L10.4966 10.5903M10.4966 10.5903L10.4871 10.5877M10.4966 10.5903L10.4871 10.5877M10.4871 10.5877C8.56362 10.0461 6.52626 10.8753 5.50945 12.5975L5.50575 12.6038M10.4871 10.5877L5.50575 12.6038M5.50575 12.6038L5.50213 12.6101M5.50575 12.6038L5.50213 12.6101M5.50213 12.6101L2.18629 18.4181M5.50213 12.6101L2.18629 18.4181M2.18629 18.4181C2.18614 18.4184 2.18598 18.4186 2.18582 18.4189M2.18629 18.4181L2.18582 18.4189M2.18582 18.4189C1.17951 20.1742 1.49876 22.3996 2.96289 23.7945C2.9637 23.7953 2.96451 23.7961 2.96532 23.7969L5.60953 26.3438C5.23237 28.7583 5.23237 31.2177 5.60953 33.6323L2.96535 36.1792C2.96452 36.18 2.96369 36.1808 2.96286 36.1816C1.49885 37.5763 1.17966 39.8012 2.1853 41.5562L2.18582 18.4189ZM33.6975 44.4459L33.5571 44.4962L33.4375 44.5853C33.418 44.5999 33.3963 44.6077 33.3749 44.6095L33.2644 44.6187L33.1587 44.6519C30.2226 45.5732 27.0797 45.5732 24.1435 44.6519L24.0292 44.616L23.9097 44.6082C23.8835 44.6065 23.857 44.5972 23.8337 44.5801L23.7169 44.4947L23.5807 44.4459C15.6979 41.6201 11.5583 32.8567 14.3593 24.8642C17.1586 16.8768 25.8202 12.7116 33.6976 15.5354C41.5804 18.3612 45.72 27.1246 42.9189 35.1171C41.3908 39.4776 38.0008 42.9033 33.6975 44.4459Z" fill="#293377"/>
<path d="M55.1393 18.417L55.1398 18.418C56.147 20.1739 55.8276 22.4007 54.3618 23.7958L54.3625 23.7952L53.6716 23.0722L54.3608 23.7968L51.6927 26.3464C52.0683 28.7601 52.0681 31.2183 51.6924 33.6319L54.3413 36.1835L54.3473 36.1893L54.3473 36.1893C55.7516 37.5648 56.0681 39.7159 55.1262 41.4422L55.1216 41.4507L55.1168 41.459L51.8 47.2687L51.7951 47.2774L51.79 47.2859C50.7675 48.997 48.7399 49.8219 46.8202 49.2927L46.8081 49.2893L46.7962 49.2857L43.3161 48.2319C42.3867 49.0325 41.3948 49.7565 40.3497 50.3967L40.3397 50.4028L40.3295 50.4087C39.2852 51.0151 38.1958 51.5378 37.0711 51.972L36.2104 55.5814C36.2101 55.5824 36.2099 55.5833 36.2097 55.5843C35.7462 57.5598 33.9926 58.9641 31.9656 58.9547H25.3364C23.3098 58.9639 21.5561 57.56 21.0926 55.5847C21.0923 55.5836 21.092 55.5825 21.0918 55.5814L20.2312 51.9942C17.9781 51.114 15.8754 49.8831 13.9992 48.3463L10.5006 49.3845L10.4872 49.3885L10.4872 49.3884C8.56379 49.9299 6.52627 49.1009 5.50943 47.3785L5.50574 47.3722L5.50213 47.3659L2.18629 41.558L55.1393 18.417ZM55.1393 18.417L51.7985 12.6073L51.7985 12.6073M55.1393 18.417L51.7985 12.6073M51.7985 12.6073L51.7927 12.5974M51.7985 12.6073L51.7927 12.5974M51.7927 12.5974C50.7759 10.875 48.7383 10.046 46.815 10.5876L46.8055 10.5902M51.7927 12.5974L46.8055 10.5902M46.8055 10.5902L46.7962 10.5931M46.8055 10.5902L46.7962 10.5931M46.7962 10.5931L43.3005 11.6516C41.4318 10.1193 39.3384 8.88984 37.0953 8.00763L36.2344 4.41899C36.2341 4.41798 36.2339 4.41698 36.2337 4.41597C35.7678 2.43015 33.9991 1.02314 31.9619 1.04568H25.3366C23.3086 1.03615 21.5541 2.44183 21.0917 4.41883C21.0917 4.41887 21.0917 4.41891 21.0917 4.41895L20.2526 8.00425C17.9897 8.87601 15.8791 10.1072 14.0007 11.6513L10.5059 10.5932L10.4966 10.5903M46.7962 10.5931L10.4966 10.5903M10.4966 10.5903L10.4871 10.5877M10.4966 10.5903L10.4871 10.5877M10.4871 10.5877C8.56362 10.0461 6.52626 10.8753 5.50945 12.5975L5.50575 12.6038M10.4871 10.5877L5.50575 12.6038M5.50575 12.6038L5.50213 12.6101M5.50575 12.6038L5.50213 12.6101M5.50213 12.6101L2.18629 18.4181M5.50213 12.6101L2.18629 18.4181M2.18629 18.4181C2.18614 18.4184 2.18598 18.4186 2.18582 18.4189M2.18629 18.4181L2.18582 18.4189M2.18582 18.4189C1.17951 20.1742 1.49876 22.3996 2.96289 23.7945C2.9637 23.7953 2.96451 23.7961 2.96532 23.7969L5.60953 26.3438C5.23237 28.7583 5.23237 31.2177 5.60953 33.6323L2.96535 36.1792C2.96452 36.18 2.96369 36.1808 2.96286 36.1816C1.49885 37.5763 1.17966 39.8012 2.1853 41.5562L2.18582 18.4189ZM33.6975 44.4459L33.5571 44.4962L33.4375 44.5853C33.418 44.5999 33.3963 44.6077 33.3749 44.6095L33.2644 44.6187L33.1587 44.6519C30.2226 45.5732 27.0797 45.5732 24.1435 44.6519L24.0292 44.616L23.9097 44.6082C23.8835 44.6065 23.857 44.5972 23.8337 44.5801L23.7169 44.4947L23.5807 44.4459C15.6979 41.6201 11.5583 32.8567 14.3593 24.8642C17.1586 16.8768 25.8202 12.7116 33.6976 15.5354C41.5804 18.3612 45.72 27.1246 42.9189 35.1171C41.3908 39.4776 38.0008 42.9033 33.6975 44.4459Z" fill="url(#paint2_linear)"/>
<path d="M55.1393 18.417L55.1398 18.418C56.147 20.1739 55.8276 22.4007 54.3618 23.7958L54.3625 23.7952L53.6716 23.0722L54.3608 23.7968L51.6927 26.3464C52.0683 28.7601 52.0681 31.2183 51.6924 33.6319L54.3413 36.1835L54.3473 36.1893L54.3473 36.1893C55.7516 37.5648 56.0681 39.7159 55.1262 41.4422L55.1216 41.4507L55.1168 41.459L51.8 47.2687L51.7951 47.2774L51.79 47.2859C50.7675 48.997 48.7399 49.8219 46.8202 49.2927L46.8081 49.2893L46.7962 49.2857L43.3161 48.2319C42.3867 49.0325 41.3948 49.7565 40.3497 50.3967L40.3397 50.4028L40.3295 50.4087C39.2852 51.0151 38.1958 51.5378 37.0711 51.972L36.2104 55.5814C36.2101 55.5824 36.2099 55.5833 36.2097 55.5843C35.7462 57.5598 33.9926 58.9641 31.9656 58.9547H25.3364C23.3098 58.9639 21.5561 57.56 21.0926 55.5847C21.0923 55.5836 21.092 55.5825 21.0918 55.5814L20.2312 51.9942C17.9781 51.114 15.8754 49.8831 13.9992 48.3463L10.5006 49.3845L10.4872 49.3885L10.4872 49.3884C8.56379 49.9299 6.52627 49.1009 5.50943 47.3785L5.50574 47.3722L5.50213 47.3659L2.18629 41.558L55.1393 18.417ZM55.1393 18.417L51.7985 12.6073L51.7985 12.6073M55.1393 18.417L51.7985 12.6073M51.7985 12.6073L51.7927 12.5974M51.7985 12.6073L51.7927 12.5974M51.7927 12.5974C50.7759 10.875 48.7383 10.046 46.815 10.5876L46.8055 10.5902M51.7927 12.5974L46.8055 10.5902M46.8055 10.5902L46.7962 10.5931M46.8055 10.5902L46.7962 10.5931M46.7962 10.5931L43.3005 11.6516C41.4318 10.1193 39.3384 8.88984 37.0953 8.00763L36.2344 4.41899C36.2341 4.41798 36.2339 4.41698 36.2337 4.41597C35.7678 2.43015 33.9991 1.02314 31.9619 1.04568H25.3366C23.3086 1.03615 21.5541 2.44183 21.0917 4.41883C21.0917 4.41887 21.0917 4.41891 21.0917 4.41895L20.2526 8.00425C17.9897 8.87601 15.8791 10.1072 14.0007 11.6513L10.5059 10.5932L10.4966 10.5903M46.7962 10.5931L10.4966 10.5903M10.4966 10.5903L10.4871 10.5877M10.4966 10.5903L10.4871 10.5877M10.4871 10.5877C8.56362 10.0461 6.52626 10.8753 5.50945 12.5975L5.50575 12.6038M10.4871 10.5877L5.50575 12.6038M5.50575 12.6038L5.50213 12.6101M5.50575 12.6038L5.50213 12.6101M5.50213 12.6101L2.18629 18.4181M5.50213 12.6101L2.18629 18.4181M2.18629 18.4181C2.18614 18.4184 2.18598 18.4186 2.18582 18.4189M2.18629 18.4181L2.18582 18.4189M2.18582 18.4189C1.17951 20.1742 1.49876 22.3996 2.96289 23.7945C2.9637 23.7953 2.96451 23.7961 2.96532 23.7969L5.60953 26.3438C5.23237 28.7583 5.23237 31.2177 5.60953 33.6323L2.96535 36.1792C2.96452 36.18 2.96369 36.1808 2.96286 36.1816C1.49885 37.5763 1.17966 39.8012 2.1853 41.5562L2.18582 18.4189ZM33.6975 44.4459L33.5571 44.4962L33.4375 44.5853C33.418 44.5999 33.3963 44.6077 33.3749 44.6095L33.2644 44.6187L33.1587 44.6519C30.2226 45.5732 27.0797 45.5732 24.1435 44.6519L24.0292 44.616L23.9097 44.6082C23.8835 44.6065 23.857 44.5972 23.8337 44.5801L23.7169 44.4947L23.5807 44.4459C15.6979 41.6201 11.5583 32.8567 14.3593 24.8642C17.1586 16.8768 25.8202 12.7116 33.6976 15.5354C41.5804 18.3612 45.72 27.1246 42.9189 35.1171C41.3908 39.4776 38.0008 42.9033 33.6975 44.4459Z" stroke="url(#paint3_linear)" stroke-width="2"/>
<defs>
<linearGradient id="paint0_linear" x1="28.6436" y1="22.2217" x2="28.6436" y2="44.0878" gradientUnits="userSpaceOnUse">
<stop stop-color="white" stop-opacity="0.49"/>
<stop offset="0.46875" stop-color="white" stop-opacity="0"/>
</linearGradient>
<linearGradient id="paint1_linear" x1="28.6436" y1="22.2217" x2="28.6436" y2="44.0878" gradientUnits="userSpaceOnUse">
<stop stop-color="white"/>
<stop offset="0.53125" stop-color="#8D8D8D"/>
<stop offset="1" stop-color="white"/>
</linearGradient>
<linearGradient id="paint2_linear" x1="28.6631" y1="2.04541" x2="28.6631" y2="57.9547" gradientUnits="userSpaceOnUse">
<stop stop-color="white" stop-opacity="0.49"/>
<stop offset="0.46875" stop-color="white" stop-opacity="0"/>
</linearGradient>
<linearGradient id="paint3_linear" x1="28.6631" y1="2.04541" x2="28.6631" y2="57.9547" gradientUnits="userSpaceOnUse">
<stop stop-color="white"/>
<stop offset="0.53125" stop-color="#8D8D8D"/>
<stop offset="1" stop-color="white"/>
</linearGradient>
</defs>
</svg>
