<svg width="64" height="64" viewBox="0 0 64 64" fill="none" xmlns="http://www.w3.org/2000/svg">
<g filter="url(#filter0_d)">
<g clip-path="url(#clip0)">
<path d="M47.0696 13.8067L47.0696 13.8067C49.7517 11.1202 49.7517 6.75216 47.0696 4.06564L46.7766 3.77216H46.7579C45.4998 2.65686 43.8947 2.0459 42.2005 2.0459L42.2002 2.0459C40.3627 2.0464 38.6306 2.76435 37.3318 4.06557C37.3318 4.06562 37.3317 4.06568 37.3317 4.06573L33.559 7.84397L32.8529 8.55108L33.5595 9.25767L41.8849 17.5831L42.5926 18.2908L43.2997 17.5826L47.0696 13.8067Z" fill="#293377" stroke="url(#paint0_linear)" stroke-width="2"/>
<path d="M10.289 31.1326L9.58186 31.8397L10.289 32.5468L18.6144 40.8718L19.3215 41.5788L20.0286 40.8718L40.9919 19.9085L41.699 19.2014L40.9919 18.4943L32.6669 10.1689L31.9598 9.46174L31.2527 10.1689L10.289 31.1326Z" fill="#293377"/>
<path d="M10.289 31.1326L9.58186 31.8397L10.289 32.5468L18.6144 40.8718L19.3215 41.5788L20.0286 40.8718L40.9919 19.9085L41.699 19.2014L40.9919 18.4943L32.6669 10.1689L31.9598 9.46174L31.2527 10.1689L10.289 31.1326Z" fill="url(#paint1_linear)"/>
<path d="M10.289 31.1326L9.58186 31.8397L10.289 32.5468L18.6144 40.8718L19.3215 41.5788L20.0286 40.8718L40.9919 19.9085L41.699 19.2014L40.9919 18.4943L32.6669 10.1689L31.9598 9.46174L31.2527 10.1689L10.289 31.1326Z" stroke="url(#paint2_linear)" stroke-width="2"/>
<path d="M9.75184 33.8144L8.73087 32.7934L8.13411 34.1082L3.59901 44.1002L3.59894 44.1003C3.1448 45.1014 3.35915 46.2794 4.1368 47.0564L4.13697 47.0565C4.64237 47.5612 5.31709 47.8284 6.00168 47.8284C6.37126 47.8284 6.74421 47.7507 7.0947 47.5907C7.09495 47.5906 7.0952 47.5905 7.09545 47.5904L17.0747 43.0477L18.3872 42.4502L17.3675 41.4305L9.75184 33.8144Z" fill="#293377" stroke="url(#paint3_linear)" stroke-width="2"/>
<path d="M49.6361 14.9194L50.342 14.2124L56.7679 7.77718C56.7679 7.77714 56.768 7.7771 56.768 7.77705C57.5223 7.02148 58.6572 6.79546 59.643 7.20341L49.6361 14.9194ZM49.6361 14.9194L50.3424 15.626M49.6361 14.9194L50.3424 15.626M50.3424 15.626L52.3663 17.6507C52.3663 17.6507 52.3664 17.6508 52.3664 17.6508C52.6156 17.9003 52.6152 18.304 52.3663 18.5527L52.3661 18.5529M50.3424 15.626L52.3661 18.5529M52.3661 18.5529C52.2411 18.6779 52.0798 18.7399 51.9151 18.7399C51.7503 18.7399 51.5889 18.6778 51.4642 18.553L51.4639 18.5526M52.3661 18.5529L51.4639 18.5526M51.4639 18.5526L49.4425 16.5304L48.7349 15.8225M51.4639 18.5526L48.7349 15.8225M48.7349 15.8225L48.0276 16.5307M48.7349 15.8225L48.0276 16.5307M48.0276 16.5307L44.936 19.6266L44.23 20.3336M48.0276 16.5307L44.23 20.3336M44.23 20.3336L44.9363 21.0402M44.23 20.3336L44.9363 21.0402M44.9363 21.0402L46.9602 23.0649M44.9363 21.0402L46.9602 23.0649M46.0581 23.9672L46.0585 23.9676C46.1827 24.0919 46.344 24.1541 46.509 24.1541C46.6735 24.1541 46.8349 24.0922 46.96 23.9675L46.0581 23.9672ZM46.0581 23.9672L44.0363 21.9449L43.3287 21.2372M46.0581 23.9672L43.3287 21.2372M43.3287 21.2372L42.6215 21.9453M43.3287 21.2372L42.6215 21.9453M42.6215 21.9453L39.5299 25.0412L38.8239 25.7482M42.6215 21.9453L38.8239 25.7482M38.8239 25.7482L39.5302 26.4548M38.8239 25.7482L39.5302 26.4548M39.5302 26.4548L41.5542 28.4797L41.5543 28.4798M39.5302 26.4548L41.5543 28.4798M41.5543 28.4798C41.8034 28.7289 41.8033 29.1325 41.5541 29.3815L41.5539 29.3818M41.5543 28.4798L41.5539 29.3818M41.5539 29.3818C41.4288 29.5069 41.2674 29.5687 41.1033 29.5687C40.9381 29.5687 40.7769 29.5067 40.6519 29.3818L38.6302 27.3592L37.9226 26.6512L37.2153 27.3596L34.1241 30.456L33.4183 31.1629L34.1245 31.8694L36.1481 33.8939L36.1482 33.894C36.3973 34.1431 36.3972 34.5471 36.148 34.7962L36.1473 34.7969C36.0236 34.9208 35.8624 34.9829 35.6972 34.9829C35.5323 34.9829 35.3707 34.9208 35.2459 34.796C35.2459 34.796 35.2459 34.796 35.2458 34.796L33.2241 32.7738L32.5164 32.066L31.8092 32.7742L28.718 35.8701L28.0121 36.5771L28.7184 37.2837L30.7423 39.3084M41.5539 29.3818L30.7423 39.3084M30.7423 39.3084C30.7423 39.3084 30.7424 39.3085 30.7424 39.3085L30.7423 39.3084ZM46.9602 23.0649C46.9602 23.065 46.9603 23.065 46.9603 23.065M46.9602 23.0649L46.9603 23.065M46.9603 23.065C47.2092 23.3142 47.2093 23.7177 46.9605 23.9671L46.9603 23.065ZM19.0271 51.039L17.0059 49.0165L16.2983 48.3084L15.5909 49.0168L9.16494 55.4526L9.16484 55.4528C8.41162 56.2073 8.18595 57.3415 8.59491 58.3271C9.00357 59.312 9.96513 59.9544 11.0315 59.9544H58.635C60.0914 59.9544 61.273 58.7736 61.273 57.3164V9.64088V9.64023C61.2723 8.57389 60.6297 7.61167 59.6432 7.2035L19.0271 51.039ZM31.6747 48.1153L31.6749 48.1151L49.4456 30.3171C49.4457 30.317 49.4458 30.3169 49.4458 30.3168C49.6286 30.1341 49.9027 30.0796 50.1411 30.1782C50.3796 30.2768 50.5351 30.5096 50.5351 30.7675V48.5658C50.5351 48.9178 50.2491 49.2037 49.8971 49.2037H32.1262C31.8686 49.2037 31.6359 49.0485 31.5369 48.8102C31.438 48.5716 31.4926 48.2975 31.6747 48.1153Z" fill="#293377"/>
<path d="M49.6361 14.9194L50.342 14.2124L56.7679 7.77718C56.7679 7.77714 56.768 7.7771 56.768 7.77705C57.5223 7.02148 58.6572 6.79546 59.643 7.20341L49.6361 14.9194ZM49.6361 14.9194L50.3424 15.626M49.6361 14.9194L50.3424 15.626M50.3424 15.626L52.3663 17.6507C52.3663 17.6507 52.3664 17.6508 52.3664 17.6508C52.6156 17.9003 52.6152 18.304 52.3663 18.5527L52.3661 18.5529M50.3424 15.626L52.3661 18.5529M52.3661 18.5529C52.2411 18.6779 52.0798 18.7399 51.9151 18.7399C51.7503 18.7399 51.5889 18.6778 51.4642 18.553L51.4639 18.5526M52.3661 18.5529L51.4639 18.5526M51.4639 18.5526L49.4425 16.5304L48.7349 15.8225M51.4639 18.5526L48.7349 15.8225M48.7349 15.8225L48.0276 16.5307M48.7349 15.8225L48.0276 16.5307M48.0276 16.5307L44.936 19.6266L44.23 20.3336M48.0276 16.5307L44.23 20.3336M44.23 20.3336L44.9363 21.0402M44.23 20.3336L44.9363 21.0402M44.9363 21.0402L46.9602 23.0649M44.9363 21.0402L46.9602 23.0649M46.0581 23.9672L46.0585 23.9676C46.1827 24.0919 46.344 24.1541 46.509 24.1541C46.6735 24.1541 46.8349 24.0922 46.96 23.9675L46.0581 23.9672ZM46.0581 23.9672L44.0363 21.9449L43.3287 21.2372M46.0581 23.9672L43.3287 21.2372M43.3287 21.2372L42.6215 21.9453M43.3287 21.2372L42.6215 21.9453M42.6215 21.9453L39.5299 25.0412L38.8239 25.7482M42.6215 21.9453L38.8239 25.7482M38.8239 25.7482L39.5302 26.4548M38.8239 25.7482L39.5302 26.4548M39.5302 26.4548L41.5542 28.4797L41.5543 28.4798M39.5302 26.4548L41.5543 28.4798M41.5543 28.4798C41.8034 28.7289 41.8033 29.1325 41.5541 29.3815L41.5539 29.3818M41.5543 28.4798L41.5539 29.3818M41.5539 29.3818C41.4288 29.5069 41.2674 29.5687 41.1033 29.5687C40.9381 29.5687 40.7769 29.5067 40.6519 29.3818L38.6302 27.3592L37.9226 26.6512L37.2153 27.3596L34.1241 30.456L33.4183 31.1629L34.1245 31.8694L36.1481 33.8939L36.1482 33.894C36.3973 34.1431 36.3972 34.5471 36.148 34.7962L36.1473 34.7969C36.0236 34.9208 35.8624 34.9829 35.6972 34.9829C35.5323 34.9829 35.3707 34.9208 35.2459 34.796C35.2459 34.796 35.2459 34.796 35.2458 34.796L33.2241 32.7738L32.5164 32.066L31.8092 32.7742L28.718 35.8701L28.0121 36.5771L28.7184 37.2837L30.7423 39.3084M41.5539 29.3818L30.7423 39.3084M30.7423 39.3084C30.7423 39.3084 30.7424 39.3085 30.7424 39.3085L30.7423 39.3084ZM46.9602 23.0649C46.9602 23.065 46.9603 23.065 46.9603 23.065M46.9602 23.0649L46.9603 23.065M46.9603 23.065C47.2092 23.3142 47.2093 23.7177 46.9605 23.9671L46.9603 23.065ZM19.0271 51.039L17.0059 49.0165L16.2983 48.3084L15.5909 49.0168L9.16494 55.4526L9.16484 55.4528C8.41162 56.2073 8.18595 57.3415 8.59491 58.3271C9.00357 59.312 9.96513 59.9544 11.0315 59.9544H58.635C60.0914 59.9544 61.273 58.7736 61.273 57.3164V9.64088V9.64023C61.2723 8.57389 60.6297 7.61167 59.6432 7.2035L19.0271 51.039ZM31.6747 48.1153L31.6749 48.1151L49.4456 30.3171C49.4457 30.317 49.4458 30.3169 49.4458 30.3168C49.6286 30.1341 49.9027 30.0796 50.1411 30.1782C50.3796 30.2768 50.5351 30.5096 50.5351 30.7675V48.5658C50.5351 48.9178 50.2491 49.2037 49.8971 49.2037H32.1262C31.8686 49.2037 31.6359 49.0485 31.5369 48.8102C31.438 48.5716 31.4926 48.2975 31.6747 48.1153Z" fill="url(#paint4_linear)"/>
<path d="M49.6361 14.9194L50.342 14.2124L56.7679 7.77718C56.7679 7.77714 56.768 7.7771 56.768 7.77705C57.5223 7.02148 58.6572 6.79546 59.643 7.20341L49.6361 14.9194ZM49.6361 14.9194L50.3424 15.626M49.6361 14.9194L50.3424 15.626M50.3424 15.626L52.3663 17.6507C52.3663 17.6507 52.3664 17.6508 52.3664 17.6508C52.6156 17.9003 52.6152 18.304 52.3663 18.5527L52.3661 18.5529M50.3424 15.626L52.3661 18.5529M52.3661 18.5529C52.2411 18.6779 52.0798 18.7399 51.9151 18.7399C51.7503 18.7399 51.5889 18.6778 51.4642 18.553L51.4639 18.5526M52.3661 18.5529L51.4639 18.5526M51.4639 18.5526L49.4425 16.5304L48.7349 15.8225M51.4639 18.5526L48.7349 15.8225M48.7349 15.8225L48.0276 16.5307M48.7349 15.8225L48.0276 16.5307M48.0276 16.5307L44.936 19.6266L44.23 20.3336M48.0276 16.5307L44.23 20.3336M44.23 20.3336L44.9363 21.0402M44.23 20.3336L44.9363 21.0402M44.9363 21.0402L46.9602 23.0649M44.9363 21.0402L46.9602 23.0649M46.0581 23.9672L46.0585 23.9676C46.1827 24.0919 46.344 24.1541 46.509 24.1541C46.6735 24.1541 46.8349 24.0922 46.96 23.9675L46.0581 23.9672ZM46.0581 23.9672L44.0363 21.9449L43.3287 21.2372M46.0581 23.9672L43.3287 21.2372M43.3287 21.2372L42.6215 21.9453M43.3287 21.2372L42.6215 21.9453M42.6215 21.9453L39.5299 25.0412L38.8239 25.7482M42.6215 21.9453L38.8239 25.7482M38.8239 25.7482L39.5302 26.4548M38.8239 25.7482L39.5302 26.4548M39.5302 26.4548L41.5542 28.4797L41.5543 28.4798M39.5302 26.4548L41.5543 28.4798M41.5543 28.4798C41.8034 28.7289 41.8033 29.1325 41.5541 29.3815L41.5539 29.3818M41.5543 28.4798L41.5539 29.3818M41.5539 29.3818C41.4288 29.5069 41.2674 29.5687 41.1033 29.5687C40.9381 29.5687 40.7769 29.5067 40.6519 29.3818L38.6302 27.3592L37.9226 26.6512L37.2153 27.3596L34.1241 30.456L33.4183 31.1629L34.1245 31.8694L36.1481 33.8939L36.1482 33.894C36.3973 34.1431 36.3972 34.5471 36.148 34.7962L36.1473 34.7969C36.0236 34.9208 35.8624 34.9829 35.6972 34.9829C35.5323 34.9829 35.3707 34.9208 35.2459 34.796C35.2459 34.796 35.2459 34.796 35.2458 34.796L33.2241 32.7738L32.5164 32.066L31.8092 32.7742L28.718 35.8701L28.0121 36.5771L28.7184 37.2837L30.7423 39.3084M41.5539 29.3818L30.7423 39.3084M30.7423 39.3084C30.7423 39.3084 30.7424 39.3085 30.7424 39.3085L30.7423 39.3084ZM46.9602 23.0649C46.9602 23.065 46.9603 23.065 46.9603 23.065M46.9602 23.0649L46.9603 23.065M46.9603 23.065C47.2092 23.3142 47.2093 23.7177 46.9605 23.9671L46.9603 23.065ZM19.0271 51.039L17.0059 49.0165L16.2983 48.3084L15.5909 49.0168L9.16494 55.4526L9.16484 55.4528C8.41162 56.2073 8.18595 57.3415 8.59491 58.3271C9.00357 59.312 9.96513 59.9544 11.0315 59.9544H58.635C60.0914 59.9544 61.273 58.7736 61.273 57.3164V9.64088V9.64023C61.2723 8.57389 60.6297 7.61167 59.6432 7.2035L19.0271 51.039ZM31.6747 48.1153L31.6749 48.1151L49.4456 30.3171C49.4457 30.317 49.4458 30.3169 49.4458 30.3168C49.6286 30.1341 49.9027 30.0796 50.1411 30.1782C50.3796 30.2768 50.5351 30.5096 50.5351 30.7675V48.5658C50.5351 48.9178 50.2491 49.2037 49.8971 49.2037H32.1262C31.8686 49.2037 31.6359 49.0485 31.5369 48.8102C31.438 48.5716 31.4926 48.2975 31.6747 48.1153Z" stroke="url(#paint5_linear)" stroke-width="2"/>
</g>
</g>
<defs>
<filter id="filter0_d" x="0" y="0" width="64" height="64" filterUnits="userSpaceOnUse" color-interpolation-filters="sRGB">
<feFlood flood-opacity="0" result="BackgroundImageFix"/>
<feColorMatrix in="SourceAlpha" type="matrix" values="0 0 0 0 0 0 0 0 0 0 0 0 0 0 0 0 0 0 127 0"/>
<feOffset dx="-1" dy="1"/>
<feGaussianBlur stdDeviation="1"/>
<feColorMatrix type="matrix" values="0 0 0 0 0 0 0 0 0 0 0 0 0 0 0 0 0 0 0.2 0"/>
<feBlend mode="normal" in2="BackgroundImageFix" result="effect1_dropShadow"/>
<feBlend mode="normal" in="SourceGraphic" in2="effect1_dropShadow" result="shape"/>
</filter>
<linearGradient id="paint0_linear" x1="41.1739" y1="3.0459" x2="41.1739" y2="16.876" gradientUnits="userSpaceOnUse">
<stop stop-color="white"/>
<stop offset="0.53125" stop-color="#8D8D8D"/>
<stop offset="1" stop-color="white"/>
</linearGradient>
<linearGradient id="paint1_linear" x1="25.6404" y1="10.876" x2="25.6404" y2="40.1647" gradientUnits="userSpaceOnUse">
<stop stop-color="white" stop-opacity="0.49"/>
<stop offset="0.46875" stop-color="white" stop-opacity="0"/>
</linearGradient>
<linearGradient id="paint2_linear" x1="25.6404" y1="10.876" x2="25.6404" y2="40.1647" gradientUnits="userSpaceOnUse">
<stop stop-color="white"/>
<stop offset="0.53125" stop-color="#8D8D8D"/>
<stop offset="1" stop-color="white"/>
</linearGradient>
<linearGradient id="paint3_linear" x1="10.5118" y1="34.5215" x2="10.5118" y2="46.8284" gradientUnits="userSpaceOnUse">
<stop stop-color="white"/>
<stop offset="0.53125" stop-color="#8D8D8D"/>
<stop offset="1" stop-color="white"/>
</linearGradient>
<linearGradient id="paint4_linear" x1="34.8333" y1="8.00293" x2="34.8333" y2="58.9544" gradientUnits="userSpaceOnUse">
<stop stop-color="white" stop-opacity="0.49"/>
<stop offset="0.46875" stop-color="white" stop-opacity="0"/>
</linearGradient>
<linearGradient id="paint5_linear" x1="34.8333" y1="8.00293" x2="34.8333" y2="58.9544" gradientUnits="userSpaceOnUse">
<stop stop-color="white"/>
<stop offset="0.53125" stop-color="#8D8D8D"/>
<stop offset="1" stop-color="white"/>
</linearGradient>
<clipPath id="clip0">
<rect x="3" y="1" width="60" height="60" fill="white"/>
</clipPath>
</defs>
</svg>
