<svg width="12" height="10" viewBox="0 0 12 10" fill="none" xmlns="http://www.w3.org/2000/svg">
<path d="M0.5 4.50012H10.4748L6.65525 0.862122C6.45525 0.671622 6.4475 0.355122 6.638 0.155122C6.82825 -0.0446281 7.14475 -0.0526281 7.345 0.137872L11.707 4.29287C11.8958 4.48187 12 4.73287 12 5.00012C12 5.26712 11.8958 5.51837 11.6983 5.71562L7.34475 9.86212C7.248 9.95437 7.124 10.0001 7 10.0001C6.868 10.0001 6.736 9.94812 6.63775 9.84487C6.44725 9.64487 6.455 9.32862 6.655 9.13812L10.4905 5.50012H0.5C0.224 5.50012 0 5.27612 0 5.00012C0 4.72412 0.224 4.50012 0.5 4.50012Z" fill="white"/>
</svg>
