<svg width="12" height="10" viewBox="0 0 12 10" fill="none" xmlns="http://www.w3.org/2000/svg">
<path d="M11.5 4.50012H1.52525L5.34475 0.862122C5.54475 0.671622 5.5525 0.355122 5.362 0.155122C5.17175 -0.0446281 4.85525 -0.0526281 4.655 0.137872L0.293 4.29287C0.10425 4.48187 0 4.73287 0 5.00012C0 5.26712 0.10425 5.51837 0.30175 5.71562L4.65525 9.86212C4.752 9.95437 4.876 10.0001 5 10.0001C5.132 10.0001 5.264 9.94812 5.36225 9.84487C5.55275 9.64487 5.545 9.32862 5.345 9.13812L1.5095 5.50012H11.5C11.776 5.50012 12 5.27612 12 5.00012C12 4.72412 11.776 4.50012 11.5 4.50012Z" fill="#464646"/>
</svg>
