<svg width="22" height="22" viewBox="0 0 22 22" fill="none" xmlns="http://www.w3.org/2000/svg">
<g clip-path="url(#clip0)">
<path d="M21.7 9.40561L11.712 0.325713L11.6166 0.238959C11.551 0.179361 11.479 0.130936 11.4029 0.0936816C11.3995 0.0920488 11.396 0.0908457 11.3926 0.0892129C11.1446 -0.0284355 10.8554 -0.0284355 10.6073 0.0892129C10.6039 0.0908027 10.6004 0.0920059 10.597 0.0936816C10.5209 0.130936 10.4489 0.179361 10.3833 0.238959L10.2893 0.324467L0.300064 9.40561C-0.0745376 9.74614 -0.102166 10.3259 0.238404 10.7005C0.578931 11.0751 1.15871 11.1027 1.53331 10.7622L1.83336 10.4894V21.0839C1.83336 21.5902 2.24376 22.0006 2.75001 22.0006H7.33336H14.6667H19.25C19.7563 22.0006 20.1667 21.5902 20.1667 21.0839V10.4894L20.4667 10.7622C20.8413 11.1027 21.4211 11.0751 21.7616 10.7005C22.1022 10.3259 22.0746 9.74618 21.7 9.40561ZM9.16667 20.1673V14.6673C9.16667 13.6546 9.98733 12.8339 11 12.8339C12.0127 12.8339 12.8334 13.6546 12.8334 14.6673V20.1673H9.16667ZM18.3334 20.1673H14.6667V14.6673C14.6667 12.6421 13.0252 11.0006 11 11.0006C8.97481 11.0006 7.33336 12.6421 7.33336 14.6672V20.1672H3.66667V8.82291L11 2.1561L18.3334 8.82291V20.1673Z" fill="white"/>
</g>
<defs>
<clipPath id="clip0">
<rect width="22" height="22" fill="white"/>
</clipPath>
</defs>
</svg>
