<svg width="64" height="64" viewBox="0 0 64 64" fill="none" xmlns="http://www.w3.org/2000/svg">
<path d="M11.7143 63.0002V62.0002V55.9337L3.21826 45.7397L3.21813 45.7395C1.78485 44.0191 1 41.8512 1 39.6115V20.2143C1 17.8877 2.88772 16 5.2143 16C7.54088 16 9.4286 17.8877 9.4286 20.2143V27.8301V28.2391L9.14188 28.5309C7.88148 29.8136 7.28022 31.4449 7.28573 33.0721L11.7143 63.0002ZM11.7143 63.0002H12.7143M11.7143 63.0002H12.7143M12.7143 63.0002H27.7144H28.7144V62.0002V45.3394C28.7144 43.3843 27.9579 41.5346 26.5878 40.1373C26.5878 40.1372 26.5878 40.1372 26.5877 40.1371L16.7264 30.0765L16.7264 30.0765L16.7193 30.0694C15.9099 29.26 14.7843 28.9182 13.7364 28.9296C12.6906 28.9409 11.5849 29.305 10.8014 30.088C9.24141 31.6453 9.20927 34.0643 10.4315 35.603L15.2414 42.0341L15.2424 42.0354C15.6182 42.536 15.517 43.2528 15.0099 43.6326C14.5065 44.0096 13.7914 43.9074 13.4119 43.4007L8.64025 37.0178L8.62898 37.0027M12.7143 63.0002L8.62898 37.0027M8.62898 37.0027L8.61714 36.9881M8.62898 37.0027L8.61714 36.9881M8.61714 36.9881C7.85134 36.0403 7.29139 34.6007 7.28573 33.0724L8.61714 36.9881Z" fill="#293377"/>
<path d="M11.7143 63.0002V62.0002V55.9337L3.21826 45.7397L3.21813 45.7395C1.78485 44.0191 1 41.8512 1 39.6115V20.2143C1 17.8877 2.88772 16 5.2143 16C7.54088 16 9.4286 17.8877 9.4286 20.2143V27.8301V28.2391L9.14188 28.5309C7.88148 29.8136 7.28022 31.4449 7.28573 33.0721L11.7143 63.0002ZM11.7143 63.0002H12.7143M11.7143 63.0002H12.7143M12.7143 63.0002H27.7144H28.7144V62.0002V45.3394C28.7144 43.3843 27.9579 41.5346 26.5878 40.1373C26.5878 40.1372 26.5878 40.1372 26.5877 40.1371L16.7264 30.0765L16.7264 30.0765L16.7193 30.0694C15.9099 29.26 14.7843 28.9182 13.7364 28.9296C12.6906 28.9409 11.5849 29.305 10.8014 30.088C9.24141 31.6453 9.20927 34.0643 10.4315 35.603L15.2414 42.0341L15.2424 42.0354C15.6182 42.536 15.517 43.2528 15.0099 43.6326C14.5065 44.0096 13.7914 43.9074 13.4119 43.4007L8.64025 37.0178L8.62898 37.0027M12.7143 63.0002L8.62898 37.0027M8.62898 37.0027L8.61714 36.9881M8.62898 37.0027L8.61714 36.9881M8.61714 36.9881C7.85134 36.0403 7.29139 34.6007 7.28573 33.0724L8.61714 36.9881Z" fill="url(#paint0_linear)"/>
<path d="M11.7143 63.0002V62.0002V55.9337L3.21826 45.7397L3.21813 45.7395C1.78485 44.0191 1 41.8512 1 39.6115V20.2143C1 17.8877 2.88772 16 5.2143 16C7.54088 16 9.4286 17.8877 9.4286 20.2143V27.8301V28.2391L9.14188 28.5309C7.88148 29.8136 7.28022 31.4449 7.28573 33.0721L11.7143 63.0002ZM11.7143 63.0002H12.7143M11.7143 63.0002H12.7143M12.7143 63.0002H27.7144H28.7144V62.0002V45.3394C28.7144 43.3843 27.9579 41.5346 26.5878 40.1373C26.5878 40.1372 26.5878 40.1372 26.5877 40.1371L16.7264 30.0765L16.7264 30.0765L16.7193 30.0694C15.9099 29.26 14.7843 28.9182 13.7364 28.9296C12.6906 28.9409 11.5849 29.305 10.8014 30.088C9.24141 31.6453 9.20927 34.0643 10.4315 35.603L15.2414 42.0341L15.2424 42.0354C15.6182 42.536 15.517 43.2528 15.0099 43.6326C14.5065 44.0096 13.7914 43.9074 13.4119 43.4007L8.64025 37.0178L8.62898 37.0027M12.7143 63.0002L8.62898 37.0027M8.62898 37.0027L8.61714 36.9881M8.62898 37.0027L8.61714 36.9881M8.61714 36.9881C7.85134 36.0403 7.29139 34.6007 7.28573 33.0724L8.61714 36.9881Z" stroke="url(#paint1_linear)" stroke-width="2"/>
<path d="M35.2861 63.0002V62.0002V45.3394C35.2861 43.3844 36.0426 41.5349 37.4101 40.1378L37.4106 40.1373L47.272 30.0765L47.279 30.0694L47.2791 30.0694C48.0842 29.2643 49.2065 28.9197 50.2542 28.9288C51.3008 28.9378 52.4093 29.3004 53.1975 30.0886L35.2861 63.0002ZM35.2861 63.0002H36.2861M35.2861 63.0002H36.2861M36.2861 63.0002H51.2862H52.2862V62.0002V55.9337L60.7823 45.7397L60.7824 45.7395C62.2157 44.0191 63.0005 41.8512 63.0005 39.6115V20.2143C63.0005 17.8877 61.1128 16 58.7862 16C56.4594 16 54.5726 17.8877 54.5698 20.2131V20.2143V27.8301V28.2391L54.8565 28.5309C56.1171 29.8138 56.7182 31.4431 56.7127 33.0724C56.707 34.6032 56.1469 36.0423 55.3818 36.9873L55.3697 37.0023L55.3582 37.0178L50.586 43.4014L50.5856 43.4019C50.2092 43.9061 49.4946 44.0108 48.9876 43.6319L48.9873 43.6317C48.4827 43.255 48.379 42.5387 48.7566 42.0345L48.757 42.0341M36.2861 63.0002L48.757 42.0341M48.757 42.0341L53.5666 35.6034M48.757 42.0341L53.5666 35.6034M53.5666 35.6034C54.7916 34.0643 54.7565 31.6433 53.1976 30.0887L53.5666 35.6034Z" fill="#293377"/>
<path d="M35.2861 63.0002V62.0002V45.3394C35.2861 43.3844 36.0426 41.5349 37.4101 40.1378L37.4106 40.1373L47.272 30.0765L47.279 30.0694L47.2791 30.0694C48.0842 29.2643 49.2065 28.9197 50.2542 28.9288C51.3008 28.9378 52.4093 29.3004 53.1975 30.0886L35.2861 63.0002ZM35.2861 63.0002H36.2861M35.2861 63.0002H36.2861M36.2861 63.0002H51.2862H52.2862V62.0002V55.9337L60.7823 45.7397L60.7824 45.7395C62.2157 44.0191 63.0005 41.8512 63.0005 39.6115V20.2143C63.0005 17.8877 61.1128 16 58.7862 16C56.4594 16 54.5726 17.8877 54.5698 20.2131V20.2143V27.8301V28.2391L54.8565 28.5309C56.1171 29.8138 56.7182 31.4431 56.7127 33.0724C56.707 34.6032 56.1469 36.0423 55.3818 36.9873L55.3697 37.0023L55.3582 37.0178L50.586 43.4014L50.5856 43.4019C50.2092 43.9061 49.4946 44.0108 48.9876 43.6319L48.9873 43.6317C48.4827 43.255 48.379 42.5387 48.7566 42.0345L48.757 42.0341M36.2861 63.0002L48.757 42.0341M48.757 42.0341L53.5666 35.6034M48.757 42.0341L53.5666 35.6034M53.5666 35.6034C54.7916 34.0643 54.7565 31.6433 53.1976 30.0887L53.5666 35.6034Z" fill="url(#paint2_linear)"/>
<path d="M35.2861 63.0002V62.0002V45.3394C35.2861 43.3844 36.0426 41.5349 37.4101 40.1378L37.4106 40.1373L47.272 30.0765L47.279 30.0694L47.2791 30.0694C48.0842 29.2643 49.2065 28.9197 50.2542 28.9288C51.3008 28.9378 52.4093 29.3004 53.1975 30.0886L35.2861 63.0002ZM35.2861 63.0002H36.2861M35.2861 63.0002H36.2861M36.2861 63.0002H51.2862H52.2862V62.0002V55.9337L60.7823 45.7397L60.7824 45.7395C62.2157 44.0191 63.0005 41.8512 63.0005 39.6115V20.2143C63.0005 17.8877 61.1128 16 58.7862 16C56.4594 16 54.5726 17.8877 54.5698 20.2131V20.2143V27.8301V28.2391L54.8565 28.5309C56.1171 29.8138 56.7182 31.4431 56.7127 33.0724C56.707 34.6032 56.1469 36.0423 55.3818 36.9873L55.3697 37.0023L55.3582 37.0178L50.586 43.4014L50.5856 43.4019C50.2092 43.9061 49.4946 44.0108 48.9876 43.6319L48.9873 43.6317C48.4827 43.255 48.379 42.5387 48.7566 42.0345L48.757 42.0341M36.2861 63.0002L48.757 42.0341M48.757 42.0341L53.5666 35.6034M48.757 42.0341L53.5666 35.6034M53.5666 35.6034C54.7916 34.0643 54.7565 31.6433 53.1976 30.0887L53.5666 35.6034Z" stroke="url(#paint3_linear)" stroke-width="2"/>
<path d="M31.2923 34.8501L31.9994 35.5572L32.7065 34.8501L38.8422 28.7144H44.8566C47.7767 28.7144 50.1423 26.3488 50.1423 23.4287V6.28574C50.1423 3.36558 47.7767 1 44.8566 1H19.1422C16.222 1 13.8564 3.36558 13.8564 6.28574V23.4287C13.8564 26.3488 16.222 28.7144 19.1422 28.7144H25.1566L31.2923 34.8501ZM22.3565 17.0715C21.1345 17.0715 20.1422 16.0792 20.1422 14.8572C20.1422 13.6352 21.1345 12.6429 22.3565 12.6429C23.5785 12.6429 24.5708 13.6352 24.5708 14.8572C24.5708 16.0792 23.5785 17.0715 22.3565 17.0715ZM31.9994 17.0715C30.7774 17.0715 29.7851 16.0792 29.7851 14.8572C29.7851 13.6352 30.7774 12.6429 31.9994 12.6429C33.2214 12.6429 34.2137 13.6352 34.2137 14.8572C34.2137 16.0792 33.2214 17.0715 31.9994 17.0715ZM41.6423 17.0715C40.4203 17.0715 39.428 16.0792 39.428 14.8572C39.428 13.6352 40.4203 12.6429 41.6423 12.6429C42.8643 12.6429 43.8566 13.6352 43.8566 14.8572C43.8566 16.0792 42.8643 17.0715 41.6423 17.0715Z" fill="#293377"/>
<path d="M31.2923 34.8501L31.9994 35.5572L32.7065 34.8501L38.8422 28.7144H44.8566C47.7767 28.7144 50.1423 26.3488 50.1423 23.4287V6.28574C50.1423 3.36558 47.7767 1 44.8566 1H19.1422C16.222 1 13.8564 3.36558 13.8564 6.28574V23.4287C13.8564 26.3488 16.222 28.7144 19.1422 28.7144H25.1566L31.2923 34.8501ZM22.3565 17.0715C21.1345 17.0715 20.1422 16.0792 20.1422 14.8572C20.1422 13.6352 21.1345 12.6429 22.3565 12.6429C23.5785 12.6429 24.5708 13.6352 24.5708 14.8572C24.5708 16.0792 23.5785 17.0715 22.3565 17.0715ZM31.9994 17.0715C30.7774 17.0715 29.7851 16.0792 29.7851 14.8572C29.7851 13.6352 30.7774 12.6429 31.9994 12.6429C33.2214 12.6429 34.2137 13.6352 34.2137 14.8572C34.2137 16.0792 33.2214 17.0715 31.9994 17.0715ZM41.6423 17.0715C40.4203 17.0715 39.428 16.0792 39.428 14.8572C39.428 13.6352 40.4203 12.6429 41.6423 12.6429C42.8643 12.6429 43.8566 13.6352 43.8566 14.8572C43.8566 16.0792 42.8643 17.0715 41.6423 17.0715Z" fill="url(#paint4_linear)"/>
<path d="M31.2923 34.8501L31.9994 35.5572L32.7065 34.8501L38.8422 28.7144H44.8566C47.7767 28.7144 50.1423 26.3488 50.1423 23.4287V6.28574C50.1423 3.36558 47.7767 1 44.8566 1H19.1422C16.222 1 13.8564 3.36558 13.8564 6.28574V23.4287C13.8564 26.3488 16.222 28.7144 19.1422 28.7144H25.1566L31.2923 34.8501ZM22.3565 17.0715C21.1345 17.0715 20.1422 16.0792 20.1422 14.8572C20.1422 13.6352 21.1345 12.6429 22.3565 12.6429C23.5785 12.6429 24.5708 13.6352 24.5708 14.8572C24.5708 16.0792 23.5785 17.0715 22.3565 17.0715ZM31.9994 17.0715C30.7774 17.0715 29.7851 16.0792 29.7851 14.8572C29.7851 13.6352 30.7774 12.6429 31.9994 12.6429C33.2214 12.6429 34.2137 13.6352 34.2137 14.8572C34.2137 16.0792 33.2214 17.0715 31.9994 17.0715ZM41.6423 17.0715C40.4203 17.0715 39.428 16.0792 39.428 14.8572C39.428 13.6352 40.4203 12.6429 41.6423 12.6429C42.8643 12.6429 43.8566 13.6352 43.8566 14.8572C43.8566 16.0792 42.8643 17.0715 41.6423 17.0715Z" stroke="url(#paint5_linear)" stroke-width="2"/>
<defs>
<linearGradient id="paint0_linear" x1="14.8572" y1="17" x2="14.8572" y2="62.0002" gradientUnits="userSpaceOnUse">
<stop stop-color="white" stop-opacity="0.49"/>
<stop offset="0.46875" stop-color="white" stop-opacity="0"/>
</linearGradient>
<linearGradient id="paint1_linear" x1="14.8572" y1="17" x2="14.8572" y2="62.0002" gradientUnits="userSpaceOnUse">
<stop stop-color="white"/>
<stop offset="0.53125" stop-color="#8D8D8D"/>
<stop offset="1" stop-color="white"/>
</linearGradient>
<linearGradient id="paint2_linear" x1="49.1433" y1="17" x2="49.1433" y2="62.0002" gradientUnits="userSpaceOnUse">
<stop stop-color="white" stop-opacity="0.49"/>
<stop offset="0.46875" stop-color="white" stop-opacity="0"/>
</linearGradient>
<linearGradient id="paint3_linear" x1="49.1433" y1="17" x2="49.1433" y2="62.0002" gradientUnits="userSpaceOnUse">
<stop stop-color="white"/>
<stop offset="0.53125" stop-color="#8D8D8D"/>
<stop offset="1" stop-color="white"/>
</linearGradient>
<linearGradient id="paint4_linear" x1="31.9994" y1="2" x2="31.9994" y2="34.143" gradientUnits="userSpaceOnUse">
<stop stop-color="white" stop-opacity="0.49"/>
<stop offset="0.46875" stop-color="white" stop-opacity="0"/>
</linearGradient>
<linearGradient id="paint5_linear" x1="31.9994" y1="2" x2="31.9994" y2="34.143" gradientUnits="userSpaceOnUse">
<stop stop-color="white"/>
<stop offset="0.53125" stop-color="#8D8D8D"/>
<stop offset="1" stop-color="white"/>
</linearGradient>
</defs>
</svg>
