<svg width="22" height="22" viewBox="0 0 22 22" fill="none" xmlns="http://www.w3.org/2000/svg">
<path d="M21.7001 9.40537L11.7122 0.325469L11.6168 0.238715C11.5512 0.179117 11.4792 0.130691 11.4031 0.0934375C11.3997 0.0918047 11.3962 0.0906016 11.3928 0.0889687C11.1448 -0.0286797 10.8555 -0.0286797 10.6075 0.0889687C10.6041 0.0905586 10.6006 0.0917617 10.5972 0.0934375C10.5211 0.130691 10.449 0.179117 10.3835 0.238715L10.2894 0.324223L0.300217 9.40537C-0.074385 9.74589 -0.102014 10.3257 0.238556 10.7003C0.579084 11.0749 1.15886 11.1025 1.53346 10.7619L1.83351 10.4892V21.0837C1.83351 21.5899 2.24391 22.0003 2.75017 22.0003H7.33351H14.6669H19.2502C19.7564 22.0003 20.1668 21.5899 20.1668 21.0837V10.4892L20.4669 10.7619C20.8415 11.1025 21.4212 11.0749 21.7618 10.7003C22.1023 10.3257 22.0747 9.74594 21.7001 9.40537ZM9.16682 20.167V14.667C9.16682 13.6544 9.98748 12.8337 11.0002 12.8337C12.0129 12.8337 12.8335 13.6543 12.8335 14.667V20.167H9.16682ZM18.3335 20.167H14.6669V14.667C14.6669 12.6418 13.0254 11.0003 11.0002 11.0003C8.97496 11.0003 7.33351 12.6418 7.33351 14.667V20.167H3.66682V8.82267L11.0002 2.15585L18.3335 8.82267V20.167Z" fill="#464646"/>
</svg>
