<svg width="64" height="64" viewBox="0 0 64 64" fill="none" xmlns="http://www.w3.org/2000/svg">
<g filter="url(#filter0_d)">
<path d="M29.0459 20.5481C27.2603 18.7626 24.3344 18.7626 22.549 20.5481C21.6735 21.4236 21.2012 22.5755 21.2012 23.8081C21.2012 25.0293 21.6735 26.1925 22.549 27.0566C23.4474 27.9551 24.6224 28.4044 25.7974 28.4044C26.9723 28.4044 28.1473 27.9551 29.0459 27.0566C29.9212 26.1925 30.3936 25.0293 30.3936 23.8081C30.3936 22.5755 29.9212 21.4236 29.0459 20.5481Z" fill="#293377"/>
<path d="M59.4955 45.5178L59.4951 45.5174L50.476 36.5096C49.187 35.2207 47.0908 35.2207 45.8018 36.5096L45.4607 36.8508L43.6549 35.045C45.8092 31.6248 46.8984 27.7197 46.8984 23.8085C46.8984 18.407 44.8437 12.9881 40.7308 8.87506L40.0237 9.58216L40.7308 8.87505C32.4957 0.639957 19.0992 0.639957 10.8641 8.87505L10.8636 8.87557C2.64081 17.1104 2.64006 30.5064 10.8641 38.7304C14.9877 42.854 20.3947 44.9095 25.7975 44.9095C29.7083 44.9095 33.613 43.8207 37.0374 41.6624L38.8422 43.4696L38.4987 43.8131C37.2097 45.1021 37.2098 47.1983 38.4987 48.4873L38.4987 48.4874L47.5183 57.5069L47.5184 57.5069C49.1663 59.1547 51.3368 59.9769 53.5013 59.9769C55.6665 59.9769 57.8351 59.1543 59.4929 57.5097L59.4957 57.5069C61.1011 55.9015 61.9773 53.7692 61.9773 51.5125V51.5124C61.9772 49.2555 61.101 47.1231 59.4955 45.5178ZM36.2086 25.9797L35.5926 26.0823L35.4144 26.6808C35.2178 27.3412 34.956 27.9749 34.6315 28.575L34.3346 29.1241L34.6975 29.632L36.1002 31.5951L33.5863 34.1075L31.6227 32.706L31.115 32.3436L30.5662 32.6403C29.9658 32.965 29.3325 33.2266 28.674 33.4219L28.075 33.5996L27.9721 34.2158L27.5739 36.5978H24.0191L23.6228 34.2165L23.5201 33.5994L22.9203 33.4218C22.261 33.2265 21.6277 32.9649 21.0274 32.6403L20.4785 32.3436L19.9707 32.7062L18.0084 34.1073L15.4952 31.5949L16.8964 29.6315L17.2585 29.1241L16.9624 28.5756C16.6378 27.9745 16.3771 27.3419 16.1803 26.6808L16.0021 26.0822L15.386 25.9797L13.0047 25.5835V22.028L15.386 21.6318L16.0021 21.5292L16.1803 20.9307C16.3771 20.2696 16.6379 19.637 16.9624 19.0357L17.2585 18.4872L16.8964 17.9798L15.4953 16.0167L18.0084 13.5042L19.9707 14.9053L20.4785 15.2679L21.0274 14.9712C21.6278 14.6465 22.2608 14.385 22.9201 14.1899L23.5201 14.0123L23.6228 13.3951L24.0191 11.0135H27.5739L27.9721 13.3957L28.0751 14.012L28.6741 14.1896C29.3325 14.3848 29.9658 14.6464 30.5662 14.971L31.115 15.2677L31.6227 14.9053L33.5863 13.5039L36.1002 16.0163L34.6975 17.9793L34.3346 18.4873L34.6315 19.0364C34.9561 19.6365 35.2178 20.27 35.4144 20.9306L35.5926 21.5292L36.2086 21.6318L38.5889 22.028V25.5835L36.2086 25.9797ZM49.1707 46.9651L48.9561 47.1797L48.7415 46.9651L48.9561 46.7505L49.1707 46.9651ZM52.4297 50.223L52.215 50.4376L52.0004 50.223L52.2151 50.0083L52.4297 50.223Z" fill="#293377"/>
<path d="M59.4955 45.5178L59.4951 45.5174L50.476 36.5096C49.187 35.2207 47.0908 35.2207 45.8018 36.5096L45.4607 36.8508L43.6549 35.045C45.8092 31.6248 46.8984 27.7197 46.8984 23.8085C46.8984 18.407 44.8437 12.9881 40.7308 8.87506L40.0237 9.58216L40.7308 8.87505C32.4957 0.639957 19.0992 0.639957 10.8641 8.87505L10.8636 8.87557C2.64081 17.1104 2.64006 30.5064 10.8641 38.7304C14.9877 42.854 20.3947 44.9095 25.7975 44.9095C29.7083 44.9095 33.613 43.8207 37.0374 41.6624L38.8422 43.4696L38.4987 43.8131C37.2097 45.1021 37.2098 47.1983 38.4987 48.4873L38.4987 48.4874L47.5183 57.5069L47.5184 57.5069C49.1663 59.1547 51.3368 59.9769 53.5013 59.9769C55.6665 59.9769 57.8351 59.1543 59.4929 57.5097L59.4957 57.5069C61.1011 55.9015 61.9773 53.7692 61.9773 51.5125V51.5124C61.9772 49.2555 61.101 47.1231 59.4955 45.5178ZM36.2086 25.9797L35.5926 26.0823L35.4144 26.6808C35.2178 27.3412 34.956 27.9749 34.6315 28.575L34.3346 29.1241L34.6975 29.632L36.1002 31.5951L33.5863 34.1075L31.6227 32.706L31.115 32.3436L30.5662 32.6403C29.9658 32.965 29.3325 33.2266 28.674 33.4219L28.075 33.5996L27.9721 34.2158L27.5739 36.5978H24.0191L23.6228 34.2165L23.5201 33.5994L22.9203 33.4218C22.261 33.2265 21.6277 32.9649 21.0274 32.6403L20.4785 32.3436L19.9707 32.7062L18.0084 34.1073L15.4952 31.5949L16.8964 29.6315L17.2585 29.1241L16.9624 28.5756C16.6378 27.9745 16.3771 27.3419 16.1803 26.6808L16.0021 26.0822L15.386 25.9797L13.0047 25.5835V22.028L15.386 21.6318L16.0021 21.5292L16.1803 20.9307C16.3771 20.2696 16.6379 19.637 16.9624 19.0357L17.2585 18.4872L16.8964 17.9798L15.4953 16.0167L18.0084 13.5042L19.9707 14.9053L20.4785 15.2679L21.0274 14.9712C21.6278 14.6465 22.2608 14.385 22.9201 14.1899L23.5201 14.0123L23.6228 13.3951L24.0191 11.0135H27.5739L27.9721 13.3957L28.0751 14.012L28.6741 14.1896C29.3325 14.3848 29.9658 14.6464 30.5662 14.971L31.115 15.2677L31.6227 14.9053L33.5863 13.5039L36.1002 16.0163L34.6975 17.9793L34.3346 18.4873L34.6315 19.0364C34.9561 19.6365 35.2178 20.27 35.4144 20.9306L35.5926 21.5292L36.2086 21.6318L38.5889 22.028V25.5835L36.2086 25.9797ZM49.1707 46.9651L48.9561 47.1797L48.7415 46.9651L48.9561 46.7505L49.1707 46.9651ZM52.4297 50.223L52.215 50.4376L52.0004 50.223L52.2151 50.0083L52.4297 50.223Z" fill="url(#paint0_linear)"/>
<path d="M59.4955 45.5178L59.4951 45.5174L50.476 36.5096C49.187 35.2207 47.0908 35.2207 45.8018 36.5096L45.4607 36.8508L43.6549 35.045C45.8092 31.6248 46.8984 27.7197 46.8984 23.8085C46.8984 18.407 44.8437 12.9881 40.7308 8.87506L40.0237 9.58216L40.7308 8.87505C32.4957 0.639957 19.0992 0.639957 10.8641 8.87505L10.8636 8.87557C2.64081 17.1104 2.64006 30.5064 10.8641 38.7304C14.9877 42.854 20.3947 44.9095 25.7975 44.9095C29.7083 44.9095 33.613 43.8207 37.0374 41.6624L38.8422 43.4696L38.4987 43.8131C37.2097 45.1021 37.2098 47.1983 38.4987 48.4873L38.4987 48.4874L47.5183 57.5069L47.5184 57.5069C49.1663 59.1547 51.3368 59.9769 53.5013 59.9769C55.6665 59.9769 57.8351 59.1543 59.4929 57.5097L59.4957 57.5069C61.1011 55.9015 61.9773 53.7692 61.9773 51.5125V51.5124C61.9772 49.2555 61.101 47.1231 59.4955 45.5178ZM36.2086 25.9797L35.5926 26.0823L35.4144 26.6808C35.2178 27.3412 34.956 27.9749 34.6315 28.575L34.3346 29.1241L34.6975 29.632L36.1002 31.5951L33.5863 34.1075L31.6227 32.706L31.115 32.3436L30.5662 32.6403C29.9658 32.965 29.3325 33.2266 28.674 33.4219L28.075 33.5996L27.9721 34.2158L27.5739 36.5978H24.0191L23.6228 34.2165L23.5201 33.5994L22.9203 33.4218C22.261 33.2265 21.6277 32.9649 21.0274 32.6403L20.4785 32.3436L19.9707 32.7062L18.0084 34.1073L15.4952 31.5949L16.8964 29.6315L17.2585 29.1241L16.9624 28.5756C16.6378 27.9745 16.3771 27.3419 16.1803 26.6808L16.0021 26.0822L15.386 25.9797L13.0047 25.5835V22.028L15.386 21.6318L16.0021 21.5292L16.1803 20.9307C16.3771 20.2696 16.6379 19.637 16.9624 19.0357L17.2585 18.4872L16.8964 17.9798L15.4953 16.0167L18.0084 13.5042L19.9707 14.9053L20.4785 15.2679L21.0274 14.9712C21.6278 14.6465 22.2608 14.385 22.9201 14.1899L23.5201 14.0123L23.6228 13.3951L24.0191 11.0135H27.5739L27.9721 13.3957L28.0751 14.012L28.6741 14.1896C29.3325 14.3848 29.9658 14.6464 30.5662 14.971L31.115 15.2677L31.6227 14.9053L33.5863 13.5039L36.1002 16.0163L34.6975 17.9793L34.3346 18.4873L34.6315 19.0364C34.9561 19.6365 35.2178 20.27 35.4144 20.9306L35.5926 21.5292L36.2086 21.6318L38.5889 22.028V25.5835L36.2086 25.9797ZM49.1707 46.9651L48.9561 47.1797L48.7415 46.9651L48.9561 46.7505L49.1707 46.9651ZM52.4297 50.223L52.215 50.4376L52.0004 50.223L52.2151 50.0083L52.4297 50.223Z" stroke="url(#paint1_linear)" stroke-width="2"/>
</g>
<defs>
<filter id="filter0_d" x="0" y="0" width="64" height="64" filterUnits="userSpaceOnUse" color-interpolation-filters="sRGB">
<feFlood flood-opacity="0" result="BackgroundImageFix"/>
<feColorMatrix in="SourceAlpha" type="matrix" values="0 0 0 0 0 0 0 0 0 0 0 0 0 0 0 0 0 0 127 0"/>
<feOffset dx="-1" dy="1"/>
<feGaussianBlur stdDeviation="1"/>
<feColorMatrix type="matrix" values="0 0 0 0 0 0 0 0 0 0 0 0 0 0 0 0 0 0 0.2 0"/>
<feBlend mode="normal" in2="BackgroundImageFix" result="effect1_dropShadow"/>
<feBlend mode="normal" in="SourceGraphic" in2="effect1_dropShadow" result="shape"/>
</filter>
<linearGradient id="paint0_linear" x1="33.3368" y1="3.69873" x2="33.3368" y2="58.9769" gradientUnits="userSpaceOnUse">
<stop stop-color="white" stop-opacity="0.49"/>
<stop offset="0.46875" stop-color="white" stop-opacity="0"/>
</linearGradient>
<linearGradient id="paint1_linear" x1="33.3368" y1="3.69873" x2="33.3368" y2="58.9769" gradientUnits="userSpaceOnUse">
<stop stop-color="white"/>
<stop offset="0.53125" stop-color="#8D8D8D"/>
<stop offset="1" stop-color="white"/>
</linearGradient>
</defs>
</svg>
