<svg width="15" height="13" viewBox="0 0 15 13" fill="none" xmlns="http://www.w3.org/2000/svg">
<path d="M14.375 5.62515H1.90656L6.68094 1.07765C6.93094 0.839527 6.94063 0.443902 6.7025 0.193902C6.46469 -0.0557851 6.06906 -0.0657852 5.81875 0.17234L0.36625 5.36609C0.130312 5.60234 0 5.91609 0 6.25015C0 6.5839 0.130312 6.89796 0.377187 7.14453L5.81906 12.3277C5.94 12.443 6.095 12.5002 6.25 12.5002C6.415 12.5002 6.58 12.4352 6.70281 12.3061C6.94094 12.0561 6.93125 11.6608 6.68125 11.4227L1.88688 6.87515H14.375C14.72 6.87515 15 6.59515 15 6.25015C15 5.90515 14.72 5.62515 14.375 5.62515Z" fill="#293377"/>
</svg>
