<svg width="36" height="36" viewBox="0 0 36 36" fill="none" xmlns="http://www.w3.org/2000/svg">
<path d="M35.1253 15.8786L32.67 13.4237C32.0873 12.841 31.6098 11.6894 31.6098 10.8636V7.39186C31.6098 5.74036 30.2606 4.39121 28.6096 4.39033H25.1364C24.3115 4.39033 23.1586 3.91193 22.5758 3.32965L20.121 0.874814C18.9546 -0.291605 17.0448 -0.291605 15.8783 0.874814L13.4235 3.33141C12.8403 3.91413 11.6861 4.39121 10.8629 4.39121H7.3912C5.7419 4.39121 4.39099 5.74036 4.39099 7.39186V10.8637C4.39099 11.6863 3.91356 12.8414 3.33075 13.4238L0.875474 15.8787C-0.291824 17.0451 -0.291824 18.9549 0.875474 20.1231L3.33075 22.578C3.91391 23.1607 4.39099 24.3154 4.39099 25.1381V28.6099C4.39099 30.2597 5.7419 31.6106 7.3912 31.6106H10.863C11.6879 31.6106 12.8408 32.088 13.4236 32.6704L15.8784 35.1261C17.0449 36.2916 18.9547 36.2916 20.1211 35.1261L22.5759 32.6704C23.1592 32.0877 24.3116 31.6106 25.1365 31.6106H28.6096C30.2607 31.6106 31.6098 30.2597 31.6098 28.6099V25.1381C31.6098 24.3119 32.0877 23.1604 32.6701 22.578L35.1254 20.1231C36.2908 18.9549 36.2908 17.045 35.1253 15.8786ZM15.6183 24.7505L8.9991 18.1305L11.1205 16.0095L15.6188 20.5079L24.8786 11.2502L26.9995 13.3712L15.6183 24.7505Z" fill="#464646"/>
</svg>
