<svg width="10" height="12" viewBox="0 0 10 12" fill="none" xmlns="http://www.w3.org/2000/svg">
<path d="M5.5 0.5L5.5 10.4747L9.138 6.65525C9.3285 6.45525 9.645 6.4475 9.845 6.638C10.0448 6.82825 10.0528 7.14475 9.86225 7.345L5.70725 11.707C5.51825 11.8957 5.26725 12 5 12C4.733 12 4.48175 11.8957 4.2845 11.6982L0.138 7.34475C0.0457497 7.248 5.81457e-08 7.124 5.96244e-08 7C6.11985e-08 6.868 0.0520001 6.736 0.15525 6.63775C0.355249 6.44725 0.6715 6.455 0.862001 6.655L4.5 10.4905L4.5 0.5C4.5 0.224 4.724 -6.29171e-08 5 -5.96259e-08C5.276 -5.63346e-08 5.5 0.224 5.5 0.5Z" fill="#464646"/>
</svg>
