<svg width="22" height="22" viewBox="0 0 22 22" fill="none" xmlns="http://www.w3.org/2000/svg">
<g clip-path="url(#clip0)">
<path d="M17.3491 9.83987L16.3825 8.73987C16.1156 8.43627 15.6536 8.40693 15.3485 8.6724L12.4665 11.198V0.733333C12.4665 0.328533 12.138 0 11.7332 0H10.2665C9.86173 0 9.5332 0.328533 9.5332 0.733333V11.198L6.6512 8.6724C6.3476 8.40693 5.8856 8.43627 5.6172 8.73987L4.65067 9.8384C4.38227 10.1435 4.41307 10.6084 4.71813 10.8753L10.5173 15.9515C10.7945 16.1935 11.2067 16.1935 11.4839 15.9515L17.2816 10.8753C17.5867 10.6084 17.6175 10.1435 17.3491 9.83987Z" fill="white"/>
<path d="M19.0669 19.0669H2.93353C2.52873 19.0669 2.2002 19.3954 2.2002 19.8002V21.2669C2.2002 21.6717 2.52873 22.0002 2.93353 22.0002H19.0669C19.4717 22.0002 19.8002 21.6717 19.8002 21.2669V19.8002C19.8002 19.3954 19.4717 19.0669 19.0669 19.0669Z" fill="white"/>
</g>
<defs>
<clipPath id="clip0">
<rect width="22" height="22" fill="white"/>
</clipPath>
</defs>
</svg>
