<svg width="24" height="24" viewBox="0 0 24 24" fill="none" xmlns="http://www.w3.org/2000/svg">
<path d="M17.25 0H6.75C5.50734 0 4.5 1.00734 4.5 2.25V21.75C4.5 22.9927 5.50734 24 6.75 24H17.25C18.4927 24 19.5 22.9927 19.5 21.75V2.25C19.5 1.00734 18.4927 0 17.25 0ZM18 21.75C18 22.1642 17.6642 22.5 17.25 22.5H6.75C6.33577 22.5 6 22.1642 6 21.75V18H18V21.75ZM18 16.5H6V2.25C6 1.83577 6.33577 1.5 6.75 1.5H17.25C17.6642 1.5 18 1.83577 18 2.25V16.5Z" fill="#293377"/>
<path d="M12.75 19.5H11.25V21H12.75V19.5Z" fill="#C01718"/>
<path d="M16.5 3H7.5V15H16.5V3Z" fill="#293377"/>
</svg>
