<svg width="16" height="24" viewBox="0 0 16 24" fill="none" xmlns="http://www.w3.org/2000/svg">
<path d="M13.25 0H2.75C1.50734 0 0.5 1.00734 0.5 2.25V21.75C0.5 22.9927 1.50734 24 2.75 24H13.25C14.4927 24 15.5 22.9927 15.5 21.75V2.25C15.5 1.00734 14.4927 0 13.25 0ZM14 21.75C14 22.1642 13.6642 22.5 13.25 22.5H2.75C2.33577 22.5 2 22.1642 2 21.75V18H14V21.75ZM14 16.5H2V2.25C2 1.83577 2.33577 1.5 2.75 1.5H13.25C13.6642 1.5 14 1.83577 14 2.25V16.5Z" fill="#A5A4A4"/>
<path d="M8.75 19.5H7.25V21H8.75V19.5Z" fill="#A5A4A4"/>
<path d="M12.5 3H3.5V15H12.5V3Z" fill="#A5A4A4"/>
</svg>
