<svg width="91" height="91" viewBox="0 0 91 91" fill="none" xmlns="http://www.w3.org/2000/svg">
<path d="M16.5357 90V89V80.0407L4.11214 65.1342L4.11201 65.134C2.10114 62.7203 1 59.6788 1 56.5366V28.4107C1 25.2857 3.53571 22.75 6.66071 22.75C9.78571 22.75 12.3214 25.2857 12.3214 28.4107V39.4535V39.8626L12.0347 40.1544C10.1205 42.1024 9.20588 44.5832 9.21428 47.0561L16.5357 90ZM16.5357 90H17.5357M16.5357 90H17.5357M17.5357 90H39.2857H40.2857V89V64.842C40.2857 62.125 39.235 59.5559 37.3307 57.6137L23.0317 43.0258L23.0318 43.0258L23.0247 43.0187C21.9545 41.9485 20.4487 41.4823 19.0225 41.4978C17.5983 41.5132 16.116 42.01 15.0793 43.0466L17.5357 90ZM11.2566 53.03L11.2679 53.0451L18.187 62.3006C18.8856 63.2335 20.2044 63.4234 21.134 62.7272C22.0673 62.0283 22.2563 60.7069 21.5613 59.781L21.5603 59.7797L14.5819 50.4493C12.945 48.3939 12.9818 45.1411 15.0793 43.0467L11.2566 53.03ZM11.2566 53.03L11.2448 53.0153M11.2566 53.03L11.2448 53.0153M11.2448 53.0153C10.0692 51.5603 9.22284 49.3735 9.21428 47.0564L11.2448 53.0153Z" fill="#293377"/>
<path d="M16.5357 90V89V80.0407L4.11214 65.1342L4.11201 65.134C2.10114 62.7203 1 59.6788 1 56.5366V28.4107C1 25.2857 3.53571 22.75 6.66071 22.75C9.78571 22.75 12.3214 25.2857 12.3214 28.4107V39.4535V39.8626L12.0347 40.1544C10.1205 42.1024 9.20588 44.5832 9.21428 47.0561L16.5357 90ZM16.5357 90H17.5357M16.5357 90H17.5357M17.5357 90H39.2857H40.2857V89V64.842C40.2857 62.125 39.235 59.5559 37.3307 57.6137L23.0317 43.0258L23.0318 43.0258L23.0247 43.0187C21.9545 41.9485 20.4487 41.4823 19.0225 41.4978C17.5983 41.5132 16.116 42.01 15.0793 43.0466L17.5357 90ZM11.2566 53.03L11.2679 53.0451L18.187 62.3006C18.8856 63.2335 20.2044 63.4234 21.134 62.7272C22.0673 62.0283 22.2563 60.7069 21.5613 59.781L21.5603 59.7797L14.5819 50.4493C12.945 48.3939 12.9818 45.1411 15.0793 43.0467L11.2566 53.03ZM11.2566 53.03L11.2448 53.0153M11.2566 53.03L11.2448 53.0153M11.2448 53.0153C10.0692 51.5603 9.22284 49.3735 9.21428 47.0564L11.2448 53.0153Z" fill="url(#paint0_linear)"/>
<path d="M16.5357 90V89V80.0407L4.11214 65.1342L4.11201 65.134C2.10114 62.7203 1 59.6788 1 56.5366V28.4107C1 25.2857 3.53571 22.75 6.66071 22.75C9.78571 22.75 12.3214 25.2857 12.3214 28.4107V39.4535V39.8626L12.0347 40.1544C10.1205 42.1024 9.20588 44.5832 9.21428 47.0561L16.5357 90ZM16.5357 90H17.5357M16.5357 90H17.5357M17.5357 90H39.2857H40.2857V89V64.842C40.2857 62.125 39.235 59.5559 37.3307 57.6137L23.0317 43.0258L23.0318 43.0258L23.0247 43.0187C21.9545 41.9485 20.4487 41.4823 19.0225 41.4978C17.5983 41.5132 16.116 42.01 15.0793 43.0466L17.5357 90ZM11.2566 53.03L11.2679 53.0451L18.187 62.3006C18.8856 63.2335 20.2044 63.4234 21.134 62.7272C22.0673 62.0283 22.2563 60.7069 21.5613 59.781L21.5603 59.7797L14.5819 50.4493C12.945 48.3939 12.9818 45.1411 15.0793 43.0467L11.2566 53.03ZM11.2566 53.03L11.2448 53.0153M11.2566 53.03L11.2448 53.0153M11.2448 53.0153C10.0692 51.5603 9.22284 49.3735 9.21428 47.0564L11.2448 53.0153Z" stroke="url(#paint1_linear)" stroke-width="2"/>
<path d="M50.7142 89V90H51.7142H73.4642H74.4642V89V80.0407L86.8878 65.1342L86.8879 65.134C88.8988 62.7203 89.9999 59.6788 89.9999 56.5366V28.4107C89.9999 25.2857 87.4642 22.75 84.3392 22.75C81.214 22.75 78.6792 25.2857 78.6754 28.4095V28.4107V39.4535V39.8626L78.9621 40.1544C80.8765 42.1026 81.791 44.5804 81.7826 47.0564C81.774 49.3769 80.9275 51.5633 79.7526 53.0146L79.7405 53.0296L79.7289 53.0451L72.8093 62.3013L72.809 62.3017C72.1143 63.2321 70.7961 63.4246 69.8619 62.7266L69.8616 62.7263C68.9309 62.0314 68.7394 60.7106 69.4362 59.7802L69.4365 59.7797L76.4146 50.4498C78.0556 48.3935 78.0146 45.1369 75.9169 43.046C74.8736 42.0032 73.3884 41.5089 71.9639 41.4966C70.5381 41.4843 69.0366 41.9542 67.9721 43.0187L67.9721 43.0187L67.9651 43.0258L53.666 57.6139L53.6655 57.6144C51.7648 59.5563 50.7142 62.1251 50.7142 64.842V89Z" fill="#293377"/>
<path d="M50.7142 89V90H51.7142H73.4642H74.4642V89V80.0407L86.8878 65.1342L86.8879 65.134C88.8988 62.7203 89.9999 59.6788 89.9999 56.5366V28.4107C89.9999 25.2857 87.4642 22.75 84.3392 22.75C81.214 22.75 78.6792 25.2857 78.6754 28.4095V28.4107V39.4535V39.8626L78.9621 40.1544C80.8765 42.1026 81.791 44.5804 81.7826 47.0564C81.774 49.3769 80.9275 51.5633 79.7526 53.0146L79.7405 53.0296L79.7289 53.0451L72.8093 62.3013L72.809 62.3017C72.1143 63.2321 70.7961 63.4246 69.8619 62.7266L69.8616 62.7263C68.9309 62.0314 68.7394 60.7106 69.4362 59.7802L69.4365 59.7797L76.4146 50.4498C78.0556 48.3935 78.0146 45.1369 75.9169 43.046C74.8736 42.0032 73.3884 41.5089 71.9639 41.4966C70.5381 41.4843 69.0366 41.9542 67.9721 43.0187L67.9721 43.0187L67.9651 43.0258L53.666 57.6139L53.6655 57.6144C51.7648 59.5563 50.7142 62.1251 50.7142 64.842V89Z" fill="url(#paint2_linear)"/>
<path d="M50.7142 89V90H51.7142H73.4642H74.4642V89V80.0407L86.8878 65.1342L86.8879 65.134C88.8988 62.7203 89.9999 59.6788 89.9999 56.5366V28.4107C89.9999 25.2857 87.4642 22.75 84.3392 22.75C81.214 22.75 78.6792 25.2857 78.6754 28.4095V28.4107V39.4535V39.8626L78.9621 40.1544C80.8765 42.1026 81.791 44.5804 81.7826 47.0564C81.774 49.3769 80.9275 51.5633 79.7526 53.0146L79.7405 53.0296L79.7289 53.0451L72.8093 62.3013L72.809 62.3017C72.1143 63.2321 70.7961 63.4246 69.8619 62.7266L69.8616 62.7263C68.9309 62.0314 68.7394 60.7106 69.4362 59.7802L69.4365 59.7797L76.4146 50.4498C78.0556 48.3935 78.0146 45.1369 75.9169 43.046C74.8736 42.0032 73.3884 41.5089 71.9639 41.4966C70.5381 41.4843 69.0366 41.9542 67.9721 43.0187L67.9721 43.0187L67.9651 43.0258L53.666 57.6139L53.6655 57.6144C51.7648 59.5563 50.7142 62.1251 50.7142 64.842V89Z" stroke="url(#paint3_linear)" stroke-width="2"/>
<path d="M44.7929 49.3143L45.5 50.0214L46.2071 49.3143L55.2356 40.2857H64.1428C68.1285 40.2857 71.3571 37.0571 71.3571 33.0714V8.21429C71.3571 4.22861 68.1285 1 64.1428 1H26.8571C22.8714 1 19.6428 4.22861 19.6428 8.21429V33.0714C19.6428 37.0571 22.8714 40.2857 26.8571 40.2857H35.7643L44.7929 49.3143ZM31.5178 24.3036C29.4974 24.3036 27.8571 22.6633 27.8571 20.6429C27.8571 18.6224 29.4974 16.9821 31.5178 16.9821C33.5383 16.9821 35.1785 18.6224 35.1785 20.6429C35.1785 22.6633 33.5383 24.3036 31.5178 24.3036ZM45.5 24.3036C43.4795 24.3036 41.8393 22.6633 41.8393 20.6429C41.8393 18.6224 43.4795 16.9821 45.5 16.9821C47.5204 16.9821 49.1607 18.6224 49.1607 20.6429C49.1607 22.6633 47.5204 24.3036 45.5 24.3036ZM59.4821 24.3036C57.4617 24.3036 55.8214 22.6633 55.8214 20.6429C55.8214 18.6224 57.4617 16.9821 59.4821 16.9821C61.5025 16.9821 63.1428 18.6224 63.1428 20.6429C63.1428 22.6633 61.5025 24.3036 59.4821 24.3036Z" fill="#293377"/>
<path d="M44.7929 49.3143L45.5 50.0214L46.2071 49.3143L55.2356 40.2857H64.1428C68.1285 40.2857 71.3571 37.0571 71.3571 33.0714V8.21429C71.3571 4.22861 68.1285 1 64.1428 1H26.8571C22.8714 1 19.6428 4.22861 19.6428 8.21429V33.0714C19.6428 37.0571 22.8714 40.2857 26.8571 40.2857H35.7643L44.7929 49.3143ZM31.5178 24.3036C29.4974 24.3036 27.8571 22.6633 27.8571 20.6429C27.8571 18.6224 29.4974 16.9821 31.5178 16.9821C33.5383 16.9821 35.1785 18.6224 35.1785 20.6429C35.1785 22.6633 33.5383 24.3036 31.5178 24.3036ZM45.5 24.3036C43.4795 24.3036 41.8393 22.6633 41.8393 20.6429C41.8393 18.6224 43.4795 16.9821 45.5 16.9821C47.5204 16.9821 49.1607 18.6224 49.1607 20.6429C49.1607 22.6633 47.5204 24.3036 45.5 24.3036ZM59.4821 24.3036C57.4617 24.3036 55.8214 22.6633 55.8214 20.6429C55.8214 18.6224 57.4617 16.9821 59.4821 16.9821C61.5025 16.9821 63.1428 18.6224 63.1428 20.6429C63.1428 22.6633 61.5025 24.3036 59.4821 24.3036Z" fill="url(#paint4_linear)"/>
<path d="M44.7929 49.3143L45.5 50.0214L46.2071 49.3143L55.2356 40.2857H64.1428C68.1285 40.2857 71.3571 37.0571 71.3571 33.0714V8.21429C71.3571 4.22861 68.1285 1 64.1428 1H26.8571C22.8714 1 19.6428 4.22861 19.6428 8.21429V33.0714C19.6428 37.0571 22.8714 40.2857 26.8571 40.2857H35.7643L44.7929 49.3143ZM31.5178 24.3036C29.4974 24.3036 27.8571 22.6633 27.8571 20.6429C27.8571 18.6224 29.4974 16.9821 31.5178 16.9821C33.5383 16.9821 35.1785 18.6224 35.1785 20.6429C35.1785 22.6633 33.5383 24.3036 31.5178 24.3036ZM45.5 24.3036C43.4795 24.3036 41.8393 22.6633 41.8393 20.6429C41.8393 18.6224 43.4795 16.9821 45.5 16.9821C47.5204 16.9821 49.1607 18.6224 49.1607 20.6429C49.1607 22.6633 47.5204 24.3036 45.5 24.3036ZM59.4821 24.3036C57.4617 24.3036 55.8214 22.6633 55.8214 20.6429C55.8214 18.6224 57.4617 16.9821 59.4821 16.9821C61.5025 16.9821 63.1428 18.6224 63.1428 20.6429C63.1428 22.6633 61.5025 24.3036 59.4821 24.3036Z" stroke="url(#paint5_linear)" stroke-width="2"/>
<defs>
<linearGradient id="paint0_linear" x1="20.6429" y1="23.75" x2="20.6429" y2="89" gradientUnits="userSpaceOnUse">
<stop stop-color="white" stop-opacity="0.49"/>
<stop offset="0.46875" stop-color="white" stop-opacity="0"/>
</linearGradient>
<linearGradient id="paint1_linear" x1="20.6429" y1="23.75" x2="20.6429" y2="89" gradientUnits="userSpaceOnUse">
<stop stop-color="white"/>
<stop offset="0.53125" stop-color="#8D8D8D"/>
<stop offset="1" stop-color="white"/>
</linearGradient>
<linearGradient id="paint2_linear" x1="70.3571" y1="23.75" x2="70.3571" y2="89" gradientUnits="userSpaceOnUse">
<stop stop-color="white" stop-opacity="0.49"/>
<stop offset="0.46875" stop-color="white" stop-opacity="0"/>
</linearGradient>
<linearGradient id="paint3_linear" x1="70.3571" y1="23.75" x2="70.3571" y2="89" gradientUnits="userSpaceOnUse">
<stop stop-color="white"/>
<stop offset="0.53125" stop-color="#8D8D8D"/>
<stop offset="1" stop-color="white"/>
</linearGradient>
<linearGradient id="paint4_linear" x1="45.5" y1="2" x2="45.5" y2="48.6071" gradientUnits="userSpaceOnUse">
<stop stop-color="white" stop-opacity="0.49"/>
<stop offset="0.46875" stop-color="white" stop-opacity="0"/>
</linearGradient>
<linearGradient id="paint5_linear" x1="45.5" y1="2" x2="45.5" y2="48.6071" gradientUnits="userSpaceOnUse">
<stop stop-color="white"/>
<stop offset="0.53125" stop-color="#8D8D8D"/>
<stop offset="1" stop-color="white"/>
</linearGradient>
</defs>
</svg>
