<svg width="90" height="91" viewBox="0 0 90 91" fill="none" xmlns="http://www.w3.org/2000/svg">
<g filter="url(#filter0_d)">
<path d="M39.6353 28.9962C36.9868 26.3476 32.6466 26.3476 29.9983 28.9962C28.6996 30.2948 27.999 32.0035 27.999 33.8318C27.999 35.6432 28.6996 37.3687 29.9983 38.6503C31.331 39.9832 33.0738 40.6496 34.8168 40.6496C36.5595 40.6496 38.3025 39.9832 39.6353 38.6503C40.9338 37.3687 41.6344 35.6432 41.6344 33.8318C41.6344 32.0035 40.9338 30.2948 39.6353 28.9962Z" fill="#293377"/>
<path d="M84.4605 66.3768L84.4601 66.3764L71.0815 53.0147C71.0814 53.0145 71.0812 53.0144 71.0811 53.0143C69.3577 51.2916 66.5547 51.2916 64.8317 53.0147L63.9838 53.8625L60.6889 50.5676C63.9726 45.4959 65.6331 39.6692 65.6331 33.8329C65.6331 25.9427 62.6319 18.0295 56.626 12.0234L55.9189 12.7305L56.626 12.0234C44.5994 -0.00324059 25.034 -0.00324059 13.0074 12.0234L13.0068 12.0239C0.998009 24.0503 0.997259 43.6153 13.0074 55.6252C19.0295 61.6474 26.9252 64.6494 34.8169 64.6494C40.6523 64.6494 46.4784 62.9894 51.5567 59.6997L54.8498 62.9971L53.9987 63.8482C52.2755 65.5714 52.2755 68.3747 53.9986 70.0981L53.9987 70.0981L67.3778 83.477L68.0849 82.7699L67.3778 83.4771C69.7273 85.8263 72.822 86.9993 75.9107 86.9993C79.0002 86.9993 82.093 85.826 84.4579 83.4798L84.4607 83.477C86.7509 81.1868 88.0001 78.147 88.0001 74.9271C88 71.7069 86.7508 68.6669 84.4605 66.3768ZM50.3394 37.5303L49.7234 37.6329L49.5452 38.2314C49.2441 39.2425 48.8431 40.2133 48.3457 41.1331L48.0488 41.6822L48.4117 42.1901L50.7306 45.4354L46.4224 49.7409L43.1768 47.4243L42.669 47.0619L42.1202 47.3586C41.2 47.8561 40.2297 48.257 39.2211 48.5562L38.6221 48.7338L38.5191 49.3501L37.8611 53.2871H31.7693L31.1142 49.3508L31.0115 48.7337L30.4117 48.5561C29.4017 48.2569 28.4314 47.8561 27.5112 47.3586L26.9623 47.0618L26.4545 47.4244L23.2108 49.7406L18.9039 45.4352L21.2201 42.1897L21.5822 41.6822L21.286 41.1337C20.7886 40.2124 20.3893 39.2432 20.0881 38.2314L19.9099 37.6329L19.2938 37.5303L15.3575 36.8753V30.7823L19.2938 30.1273L19.9099 30.0248L20.0881 29.4262C20.3893 28.4144 20.7886 27.4452 21.2861 26.5237L21.5822 25.9752L21.2201 25.4678L18.9039 22.2226L23.2108 17.917L26.4545 20.2332L26.9623 20.5958L27.5112 20.299C28.4314 19.8015 29.4015 19.4007 30.4116 19.1018L31.0115 18.9242L31.1142 18.307L31.7693 14.3704H37.8611L38.5191 18.3076L38.6221 18.9239L39.2212 19.1015C40.2296 19.4005 41.2001 19.8013 42.1202 20.2989L42.669 20.5955L43.1768 20.2331L46.4224 17.9166L50.7306 22.2222L48.4117 25.4673L48.0488 25.9753L48.3457 26.5244C48.8432 27.4442 49.2441 28.4148 49.5451 29.4262L49.7233 30.0247L50.3394 30.1273L54.274 30.7823V36.8754L50.3394 37.5303ZM69.1688 69.1838L68.1668 68.1819L69.1688 67.18L70.1706 68.1819L69.1688 69.1838ZM74.0028 74.0163L73.0008 73.0144L74.0029 72.0124L75.0047 73.0144L74.0028 74.0163Z" fill="#293377"/>
<path d="M84.4605 66.3768L84.4601 66.3764L71.0815 53.0147C71.0814 53.0145 71.0812 53.0144 71.0811 53.0143C69.3577 51.2916 66.5547 51.2916 64.8317 53.0147L63.9838 53.8625L60.6889 50.5676C63.9726 45.4959 65.6331 39.6692 65.6331 33.8329C65.6331 25.9427 62.6319 18.0295 56.626 12.0234L55.9189 12.7305L56.626 12.0234C44.5994 -0.00324059 25.034 -0.00324059 13.0074 12.0234L13.0068 12.0239C0.998009 24.0503 0.997259 43.6153 13.0074 55.6252C19.0295 61.6474 26.9252 64.6494 34.8169 64.6494C40.6523 64.6494 46.4784 62.9894 51.5567 59.6997L54.8498 62.9971L53.9987 63.8482C52.2755 65.5714 52.2755 68.3747 53.9986 70.0981L53.9987 70.0981L67.3778 83.477L68.0849 82.7699L67.3778 83.4771C69.7273 85.8263 72.822 86.9993 75.9107 86.9993C79.0002 86.9993 82.093 85.826 84.4579 83.4798L84.4607 83.477C86.7509 81.1868 88.0001 78.147 88.0001 74.9271C88 71.7069 86.7508 68.6669 84.4605 66.3768ZM50.3394 37.5303L49.7234 37.6329L49.5452 38.2314C49.2441 39.2425 48.8431 40.2133 48.3457 41.1331L48.0488 41.6822L48.4117 42.1901L50.7306 45.4354L46.4224 49.7409L43.1768 47.4243L42.669 47.0619L42.1202 47.3586C41.2 47.8561 40.2297 48.257 39.2211 48.5562L38.6221 48.7338L38.5191 49.3501L37.8611 53.2871H31.7693L31.1142 49.3508L31.0115 48.7337L30.4117 48.5561C29.4017 48.2569 28.4314 47.8561 27.5112 47.3586L26.9623 47.0618L26.4545 47.4244L23.2108 49.7406L18.9039 45.4352L21.2201 42.1897L21.5822 41.6822L21.286 41.1337C20.7886 40.2124 20.3893 39.2432 20.0881 38.2314L19.9099 37.6329L19.2938 37.5303L15.3575 36.8753V30.7823L19.2938 30.1273L19.9099 30.0248L20.0881 29.4262C20.3893 28.4144 20.7886 27.4452 21.2861 26.5237L21.5822 25.9752L21.2201 25.4678L18.9039 22.2226L23.2108 17.917L26.4545 20.2332L26.9623 20.5958L27.5112 20.299C28.4314 19.8015 29.4015 19.4007 30.4116 19.1018L31.0115 18.9242L31.1142 18.307L31.7693 14.3704H37.8611L38.5191 18.3076L38.6221 18.9239L39.2212 19.1015C40.2296 19.4005 41.2001 19.8013 42.1202 20.2989L42.669 20.5955L43.1768 20.2331L46.4224 17.9166L50.7306 22.2222L48.4117 25.4673L48.0488 25.9753L48.3457 26.5244C48.8432 27.4442 49.2441 28.4148 49.5451 29.4262L49.7233 30.0247L50.3394 30.1273L54.274 30.7823V36.8754L50.3394 37.5303ZM69.1688 69.1838L68.1668 68.1819L69.1688 67.18L70.1706 68.1819L69.1688 69.1838ZM74.0028 74.0163L73.0008 73.0144L74.0029 72.0124L75.0047 73.0144L74.0028 74.0163Z" fill="url(#paint0_linear)"/>
<path d="M84.4605 66.3768L84.4601 66.3764L71.0815 53.0147C71.0814 53.0145 71.0812 53.0144 71.0811 53.0143C69.3577 51.2916 66.5547 51.2916 64.8317 53.0147L63.9838 53.8625L60.6889 50.5676C63.9726 45.4959 65.6331 39.6692 65.6331 33.8329C65.6331 25.9427 62.6319 18.0295 56.626 12.0234L55.9189 12.7305L56.626 12.0234C44.5994 -0.00324059 25.034 -0.00324059 13.0074 12.0234L13.0068 12.0239C0.998009 24.0503 0.997259 43.6153 13.0074 55.6252C19.0295 61.6474 26.9252 64.6494 34.8169 64.6494C40.6523 64.6494 46.4784 62.9894 51.5567 59.6997L54.8498 62.9971L53.9987 63.8482C52.2755 65.5714 52.2755 68.3747 53.9986 70.0981L53.9987 70.0981L67.3778 83.477L68.0849 82.7699L67.3778 83.4771C69.7273 85.8263 72.822 86.9993 75.9107 86.9993C79.0002 86.9993 82.093 85.826 84.4579 83.4798L84.4607 83.477C86.7509 81.1868 88.0001 78.147 88.0001 74.9271C88 71.7069 86.7508 68.6669 84.4605 66.3768ZM50.3394 37.5303L49.7234 37.6329L49.5452 38.2314C49.2441 39.2425 48.8431 40.2133 48.3457 41.1331L48.0488 41.6822L48.4117 42.1901L50.7306 45.4354L46.4224 49.7409L43.1768 47.4243L42.669 47.0619L42.1202 47.3586C41.2 47.8561 40.2297 48.257 39.2211 48.5562L38.6221 48.7338L38.5191 49.3501L37.8611 53.2871H31.7693L31.1142 49.3508L31.0115 48.7337L30.4117 48.5561C29.4017 48.2569 28.4314 47.8561 27.5112 47.3586L26.9623 47.0618L26.4545 47.4244L23.2108 49.7406L18.9039 45.4352L21.2201 42.1897L21.5822 41.6822L21.286 41.1337C20.7886 40.2124 20.3893 39.2432 20.0881 38.2314L19.9099 37.6329L19.2938 37.5303L15.3575 36.8753V30.7823L19.2938 30.1273L19.9099 30.0248L20.0881 29.4262C20.3893 28.4144 20.7886 27.4452 21.2861 26.5237L21.5822 25.9752L21.2201 25.4678L18.9039 22.2226L23.2108 17.917L26.4545 20.2332L26.9623 20.5958L27.5112 20.299C28.4314 19.8015 29.4015 19.4007 30.4116 19.1018L31.0115 18.9242L31.1142 18.307L31.7693 14.3704H37.8611L38.5191 18.3076L38.6221 18.9239L39.2212 19.1015C40.2296 19.4005 41.2001 19.8013 42.1202 20.2989L42.669 20.5955L43.1768 20.2331L46.4224 17.9166L50.7306 22.2222L48.4117 25.4673L48.0488 25.9753L48.3457 26.5244C48.8432 27.4442 49.2441 28.4148 49.5451 29.4262L49.7233 30.0247L50.3394 30.1273L54.274 30.7823V36.8754L50.3394 37.5303ZM69.1688 69.1838L68.1668 68.1819L69.1688 67.18L70.1706 68.1819L69.1688 69.1838ZM74.0028 74.0163L73.0008 73.0144L74.0029 72.0124L75.0047 73.0144L74.0028 74.0163Z" stroke="url(#paint1_linear)" stroke-width="2"/>
</g>
<defs>
<filter id="filter0_d" x="-2" y="-1" width="93" height="93" filterUnits="userSpaceOnUse" color-interpolation-filters="sRGB">
<feFlood flood-opacity="0" result="BackgroundImageFix"/>
<feColorMatrix in="SourceAlpha" type="matrix" values="0 0 0 0 0 0 0 0 0 0 0 0 0 0 0 0 0 0 127 0"/>
<feOffset dx="-1" dy="1"/>
<feGaussianBlur stdDeviation="1"/>
<feColorMatrix type="matrix" values="0 0 0 0 0 0 0 0 0 0 0 0 0 0 0 0 0 0 0.2 0"/>
<feBlend mode="normal" in2="BackgroundImageFix" result="effect1_dropShadow"/>
<feBlend mode="normal" in="SourceGraphic" in2="effect1_dropShadow" result="shape"/>
</filter>
<linearGradient id="paint0_linear" x1="46.0001" y1="4.00342" x2="46.0001" y2="85.9993" gradientUnits="userSpaceOnUse">
<stop stop-color="white" stop-opacity="0.49"/>
<stop offset="0.46875" stop-color="white" stop-opacity="0"/>
</linearGradient>
<linearGradient id="paint1_linear" x1="46.0001" y1="4.00342" x2="46.0001" y2="85.9993" gradientUnits="userSpaceOnUse">
<stop stop-color="white"/>
<stop offset="0.53125" stop-color="#8D8D8D"/>
<stop offset="1" stop-color="white"/>
</linearGradient>
</defs>
</svg>
