<svg width="89" height="90" viewBox="0 0 89 90" fill="none" xmlns="http://www.w3.org/2000/svg">
<g filter="url(#filter0_d)">
<path d="M51.2742 31.7365L51.0353 31.5918H50.7559H50.6846H49.6846V32.5918V42.2534H49.6846L49.6846 42.2624C49.6869 42.5187 49.5511 42.7565 49.3289 42.8848L49.3281 42.8852L44.3376 45.7726C44.3375 45.7727 44.3373 45.7728 44.3372 45.7729C44.1174 45.8995 43.8467 45.8995 43.6269 45.773C43.6267 45.7728 43.6265 45.7727 43.6263 45.7726L38.6358 42.8852L38.635 42.8848C38.4128 42.7565 38.277 42.5187 38.2793 42.2624H38.2793V42.2534V32.5918V30.8344L36.7685 31.7321C30.2676 35.5947 28.1289 43.9962 31.9915 50.4972C33.2659 52.6421 35.1024 54.3982 37.3024 55.5755C37.528 55.7001 37.6687 55.9371 37.6697 56.195V63.9299V64.689L38.4009 64.8931C42.0751 65.9185 45.96 65.9185 49.6342 64.8931L50.3654 64.689V63.9299V56.0881C50.3664 55.829 50.5083 55.591 50.7358 55.4669C57.3744 51.8456 59.8202 43.5286 56.199 36.8902C55.0412 34.7677 53.342 32.9895 51.2742 31.7365Z" fill="#293377"/>
<path d="M51.2742 31.7365L51.0353 31.5918H50.7559H50.6846H49.6846V32.5918V42.2534H49.6846L49.6846 42.2624C49.6869 42.5187 49.5511 42.7565 49.3289 42.8848L49.3281 42.8852L44.3376 45.7726C44.3375 45.7727 44.3373 45.7728 44.3372 45.7729C44.1174 45.8995 43.8467 45.8995 43.6269 45.773C43.6267 45.7728 43.6265 45.7727 43.6263 45.7726L38.6358 42.8852L38.635 42.8848C38.4128 42.7565 38.277 42.5187 38.2793 42.2624H38.2793V42.2534V32.5918V30.8344L36.7685 31.7321C30.2676 35.5947 28.1289 43.9962 31.9915 50.4972C33.2659 52.6421 35.1024 54.3982 37.3024 55.5755C37.528 55.7001 37.6687 55.9371 37.6697 56.195V63.9299V64.689L38.4009 64.8931C42.0751 65.9185 45.96 65.9185 49.6342 64.8931L50.3654 64.689V63.9299V56.0881C50.3664 55.829 50.5083 55.591 50.7358 55.4669C57.3744 51.8456 59.8202 43.5286 56.199 36.8902C55.0412 34.7677 53.342 32.9895 51.2742 31.7365Z" fill="url(#paint0_linear)"/>
<path d="M51.2742 31.7365L51.0353 31.5918H50.7559H50.6846H49.6846V32.5918V42.2534H49.6846L49.6846 42.2624C49.6869 42.5187 49.5511 42.7565 49.3289 42.8848L49.3281 42.8852L44.3376 45.7726C44.3375 45.7727 44.3373 45.7728 44.3372 45.7729C44.1174 45.8995 43.8467 45.8995 43.6269 45.773C43.6267 45.7728 43.6265 45.7727 43.6263 45.7726L38.6358 42.8852L38.635 42.8848C38.4128 42.7565 38.277 42.5187 38.2793 42.2624H38.2793V42.2534V32.5918V30.8344L36.7685 31.7321C30.2676 35.5947 28.1289 43.9962 31.9915 50.4972C33.2659 52.6421 35.1024 54.3982 37.3024 55.5755C37.528 55.7001 37.6687 55.9371 37.6697 56.195V63.9299V64.689L38.4009 64.8931C42.0751 65.9185 45.96 65.9185 49.6342 64.8931L50.3654 64.689V63.9299V56.0881C50.3664 55.829 50.5083 55.591 50.7358 55.4669C57.3744 51.8456 59.8202 43.5286 56.199 36.8902C55.0412 34.7677 53.342 32.9895 51.2742 31.7365Z" stroke="url(#paint1_linear)" stroke-width="2"/>
<path d="M82.8521 27.241L82.8516 27.2401L77.896 18.7192L77.8961 18.7192L77.8902 18.7093C76.4892 16.3629 73.6916 15.244 71.0591 15.9769L71.0498 15.9795L71.0405 15.9823L65.6023 17.6105C62.7544 15.2653 59.543 13.3999 56.0946 12.088L54.7595 6.58506C54.7592 6.58399 54.759 6.58291 54.7587 6.58184C54.1162 3.87153 51.6811 1.9687 48.896 2.00039H39.0645C36.2929 1.98701 33.8784 3.88758 33.2403 6.58489C33.2403 6.58493 33.2403 6.58498 33.2403 6.58502L31.9386 12.0846C28.4602 13.3793 25.2229 15.2469 22.361 17.6102L16.9238 15.9824L16.9145 15.9797L16.9052 15.9771C14.2725 15.2442 11.4751 16.3633 10.0742 18.7094L10.0704 18.7157L10.0667 18.7221L5.14778 27.2412C5.14758 27.2416 5.14738 27.2419 5.14717 27.2423C3.75946 29.6356 4.20256 32.6692 6.21639 34.5656C6.21722 34.5663 6.21804 34.5671 6.21886 34.5679L10.3196 38.4734C9.71696 42.1214 9.71696 45.8436 10.3196 49.4917L6.2189 53.3971C6.21817 53.3978 6.21743 53.3985 6.2167 53.3992C4.20241 55.2956 3.75944 58.3294 5.14712 60.7227C5.14734 60.7231 5.14756 60.7234 5.14778 60.7238L10.0667 69.243L10.0704 69.2493L10.0741 69.2556C11.4751 71.6019 14.2727 72.7208 16.9052 71.988L16.9052 71.9881L16.9185 71.9841L22.3596 70.3877C25.2183 72.7391 28.4431 74.6059 31.9056 75.9141L33.2404 81.4156C33.2406 81.4165 33.2409 81.4175 33.2411 81.4184C33.8801 84.1143 36.294 86.0133 39.0643 86.0003H48.8999C51.6707 86.0135 54.0845 84.114 54.7234 81.4179C54.7235 81.4171 54.7237 81.4164 54.7239 81.4156L56.0589 75.8806C57.7865 75.2358 59.4585 74.4502 61.0583 73.5318L61.0684 73.5259L61.0784 73.5199C62.6823 72.5484 64.2008 71.4432 65.6179 70.2165L71.0405 71.84L71.0523 71.8436L71.0643 71.8468C73.6929 72.5635 76.4781 71.4494 77.8874 69.1176L77.8926 69.1091L77.8976 69.1004L82.8175 60.5795L82.8224 60.5711L82.8271 60.5626C84.1257 58.2091 83.6869 55.2773 81.756 53.4072L81.75 53.4014L77.6445 49.4913C78.245 45.8441 78.2451 42.1232 77.6449 38.476L81.781 34.5678C81.7814 34.5674 81.7818 34.567 81.7822 34.5667C83.7977 32.67 84.2409 29.635 82.8521 27.241ZM51.6342 65.6255L51.4945 65.675L51.3752 65.7629C51.2742 65.8373 51.1548 65.882 51.0303 65.8923L50.921 65.9013L50.8163 65.9338C46.3649 67.3148 41.5996 67.3148 37.1482 65.9338L37.035 65.8987L36.9167 65.891C36.7834 65.8823 36.655 65.8361 36.5467 65.7578L36.4302 65.6735L36.2947 65.6255C24.3437 61.3895 18.0894 48.2676 22.3254 36.3165C26.5614 24.3655 39.6833 18.1113 51.6343 22.3472C63.5854 26.5832 69.8394 39.7052 65.6035 51.6562C63.291 58.1804 58.1584 63.313 51.6342 65.6255Z" fill="#293377"/>
<path d="M82.8521 27.241L82.8516 27.2401L77.896 18.7192L77.8961 18.7192L77.8902 18.7093C76.4892 16.3629 73.6916 15.244 71.0591 15.9769L71.0498 15.9795L71.0405 15.9823L65.6023 17.6105C62.7544 15.2653 59.543 13.3999 56.0946 12.088L54.7595 6.58506C54.7592 6.58399 54.759 6.58291 54.7587 6.58184C54.1162 3.87153 51.6811 1.9687 48.896 2.00039H39.0645C36.2929 1.98701 33.8784 3.88758 33.2403 6.58489C33.2403 6.58493 33.2403 6.58498 33.2403 6.58502L31.9386 12.0846C28.4602 13.3793 25.2229 15.2469 22.361 17.6102L16.9238 15.9824L16.9145 15.9797L16.9052 15.9771C14.2725 15.2442 11.4751 16.3633 10.0742 18.7094L10.0704 18.7157L10.0667 18.7221L5.14778 27.2412C5.14758 27.2416 5.14738 27.2419 5.14717 27.2423C3.75946 29.6356 4.20256 32.6692 6.21639 34.5656C6.21722 34.5663 6.21804 34.5671 6.21886 34.5679L10.3196 38.4734C9.71696 42.1214 9.71696 45.8436 10.3196 49.4917L6.2189 53.3971C6.21817 53.3978 6.21743 53.3985 6.2167 53.3992C4.20241 55.2956 3.75944 58.3294 5.14712 60.7227C5.14734 60.7231 5.14756 60.7234 5.14778 60.7238L10.0667 69.243L10.0704 69.2493L10.0741 69.2556C11.4751 71.6019 14.2727 72.7208 16.9052 71.988L16.9052 71.9881L16.9185 71.9841L22.3596 70.3877C25.2183 72.7391 28.4431 74.6059 31.9056 75.9141L33.2404 81.4156C33.2406 81.4165 33.2409 81.4175 33.2411 81.4184C33.8801 84.1143 36.294 86.0133 39.0643 86.0003H48.8999C51.6707 86.0135 54.0845 84.114 54.7234 81.4179C54.7235 81.4171 54.7237 81.4164 54.7239 81.4156L56.0589 75.8806C57.7865 75.2358 59.4585 74.4502 61.0583 73.5318L61.0684 73.5259L61.0784 73.5199C62.6823 72.5484 64.2008 71.4432 65.6179 70.2165L71.0405 71.84L71.0523 71.8436L71.0643 71.8468C73.6929 72.5635 76.4781 71.4494 77.8874 69.1176L77.8926 69.1091L77.8976 69.1004L82.8175 60.5795L82.8224 60.5711L82.8271 60.5626C84.1257 58.2091 83.6869 55.2773 81.756 53.4072L81.75 53.4014L77.6445 49.4913C78.245 45.8441 78.2451 42.1232 77.6449 38.476L81.781 34.5678C81.7814 34.5674 81.7818 34.567 81.7822 34.5667C83.7977 32.67 84.2409 29.635 82.8521 27.241ZM51.6342 65.6255L51.4945 65.675L51.3752 65.7629C51.2742 65.8373 51.1548 65.882 51.0303 65.8923L50.921 65.9013L50.8163 65.9338C46.3649 67.3148 41.5996 67.3148 37.1482 65.9338L37.035 65.8987L36.9167 65.891C36.7834 65.8823 36.655 65.8361 36.5467 65.7578L36.4302 65.6735L36.2947 65.6255C24.3437 61.3895 18.0894 48.2676 22.3254 36.3165C26.5614 24.3655 39.6833 18.1113 51.6343 22.3472C63.5854 26.5832 69.8394 39.7052 65.6035 51.6562C63.291 58.1804 58.1584 63.313 51.6342 65.6255Z" fill="url(#paint2_linear)"/>
<path d="M82.8521 27.241L82.8516 27.2401L77.896 18.7192L77.8961 18.7192L77.8902 18.7093C76.4892 16.3629 73.6916 15.244 71.0591 15.9769L71.0498 15.9795L71.0405 15.9823L65.6023 17.6105C62.7544 15.2653 59.543 13.3999 56.0946 12.088L54.7595 6.58506C54.7592 6.58399 54.759 6.58291 54.7587 6.58184C54.1162 3.87153 51.6811 1.9687 48.896 2.00039H39.0645C36.2929 1.98701 33.8784 3.88758 33.2403 6.58489C33.2403 6.58493 33.2403 6.58498 33.2403 6.58502L31.9386 12.0846C28.4602 13.3793 25.2229 15.2469 22.361 17.6102L16.9238 15.9824L16.9145 15.9797L16.9052 15.9771C14.2725 15.2442 11.4751 16.3633 10.0742 18.7094L10.0704 18.7157L10.0667 18.7221L5.14778 27.2412C5.14758 27.2416 5.14738 27.2419 5.14717 27.2423C3.75946 29.6356 4.20256 32.6692 6.21639 34.5656C6.21722 34.5663 6.21804 34.5671 6.21886 34.5679L10.3196 38.4734C9.71696 42.1214 9.71696 45.8436 10.3196 49.4917L6.2189 53.3971C6.21817 53.3978 6.21743 53.3985 6.2167 53.3992C4.20241 55.2956 3.75944 58.3294 5.14712 60.7227C5.14734 60.7231 5.14756 60.7234 5.14778 60.7238L10.0667 69.243L10.0704 69.2493L10.0741 69.2556C11.4751 71.6019 14.2727 72.7208 16.9052 71.988L16.9052 71.9881L16.9185 71.9841L22.3596 70.3877C25.2183 72.7391 28.4431 74.6059 31.9056 75.9141L33.2404 81.4156C33.2406 81.4165 33.2409 81.4175 33.2411 81.4184C33.8801 84.1143 36.294 86.0133 39.0643 86.0003H48.8999C51.6707 86.0135 54.0845 84.114 54.7234 81.4179C54.7235 81.4171 54.7237 81.4164 54.7239 81.4156L56.0589 75.8806C57.7865 75.2358 59.4585 74.4502 61.0583 73.5318L61.0684 73.5259L61.0784 73.5199C62.6823 72.5484 64.2008 71.4432 65.6179 70.2165L71.0405 71.84L71.0523 71.8436L71.0643 71.8468C73.6929 72.5635 76.4781 71.4494 77.8874 69.1176L77.8926 69.1091L77.8976 69.1004L82.8175 60.5795L82.8224 60.5711L82.8271 60.5626C84.1257 58.2091 83.6869 55.2773 81.756 53.4072L81.75 53.4014L77.6445 49.4913C78.245 45.8441 78.2451 42.1232 77.6449 38.476L81.781 34.5678C81.7814 34.5674 81.7818 34.567 81.7822 34.5667C83.7977 32.67 84.2409 29.635 82.8521 27.241ZM51.6342 65.6255L51.4945 65.675L51.3752 65.7629C51.2742 65.8373 51.1548 65.882 51.0303 65.8923L50.921 65.9013L50.8163 65.9338C46.3649 67.3148 41.5996 67.3148 37.1482 65.9338L37.035 65.8987L36.9167 65.891C36.7834 65.8823 36.655 65.8361 36.5467 65.7578L36.4302 65.6735L36.2947 65.6255C24.3437 61.3895 18.0894 48.2676 22.3254 36.3165C26.5614 24.3655 39.6833 18.1113 51.6343 22.3472C63.5854 26.5832 69.8394 39.7052 65.6035 51.6562C63.291 58.1804 58.1584 63.313 51.6342 65.6255Z" stroke="url(#paint3_linear)" stroke-width="2"/>
</g>
<defs>
<filter id="filter0_d" x="-3" y="-1" width="93" height="92" filterUnits="userSpaceOnUse" color-interpolation-filters="sRGB">
<feFlood flood-opacity="0" result="BackgroundImageFix"/>
<feColorMatrix in="SourceAlpha" type="matrix" values="0 0 0 0 0 0 0 0 0 0 0 0 0 0 0 0 0 0 127 0"/>
<feOffset dx="-1" dy="1"/>
<feGaussianBlur stdDeviation="1"/>
<feColorMatrix type="matrix" values="0 0 0 0 0 0 0 0 0 0 0 0 0 0 0 0 0 0 0.2 0"/>
<feBlend mode="normal" in2="BackgroundImageFix" result="effect1_dropShadow"/>
<feBlend mode="normal" in="SourceGraphic" in2="effect1_dropShadow" result="shape"/>
</filter>
<linearGradient id="paint0_linear" x1="43.971" y1="32.5918" x2="43.971" y2="64.6621" gradientUnits="userSpaceOnUse">
<stop stop-color="white" stop-opacity="0.49"/>
<stop offset="0.46875" stop-color="white" stop-opacity="0"/>
</linearGradient>
<linearGradient id="paint1_linear" x1="43.971" y1="32.5918" x2="43.971" y2="64.6621" gradientUnits="userSpaceOnUse">
<stop stop-color="white"/>
<stop offset="0.53125" stop-color="#8D8D8D"/>
<stop offset="1" stop-color="white"/>
</linearGradient>
<linearGradient id="paint2_linear" x1="44" y1="3" x2="44" y2="85.0003" gradientUnits="userSpaceOnUse">
<stop stop-color="white" stop-opacity="0.49"/>
<stop offset="0.46875" stop-color="white" stop-opacity="0"/>
</linearGradient>
<linearGradient id="paint3_linear" x1="44" y1="3" x2="44" y2="85.0003" gradientUnits="userSpaceOnUse">
<stop stop-color="white"/>
<stop offset="0.53125" stop-color="#8D8D8D"/>
<stop offset="1" stop-color="white"/>
</linearGradient>
</defs>
</svg>
