<svg width="91" height="90" viewBox="0 0 91 90" fill="none" xmlns="http://www.w3.org/2000/svg">
<g filter="url(#filter0_d)">
<path d="M67.3051 18.4538L67.3052 18.4538C71.0569 14.6957 71.0569 8.58436 67.3052 4.82631L67.0122 4.53282H66.9987C65.2199 2.89795 62.9233 2.00098 60.494 2.00098L60.4937 2.00098C57.9226 2.00167 55.5009 3.00547 53.6836 4.82623C53.6835 4.82629 53.6835 4.82634 53.6834 4.82639L48.15 10.3679L47.444 11.075L48.1506 11.7816L60.3612 23.9922L61.0689 24.6999L61.776 23.9917L67.3051 18.4538Z" fill="#293377" stroke="url(#paint0_linear)" stroke-width="2"/>
<path d="M14.0206 44.5245L13.3134 45.2316L14.0206 45.9387L26.2312 58.1487L26.9383 58.8558L27.6454 58.1487L58.3915 27.4026L59.0986 26.6955L58.3915 25.9884L46.1815 13.7778L45.4744 13.0706L44.7673 13.7778L14.0206 44.5245Z" fill="#293377"/>
<path d="M14.0206 44.5245L13.3134 45.2316L14.0206 45.9387L26.2312 58.1487L26.9383 58.8558L27.6454 58.1487L58.3915 27.4026L59.0986 26.6955L58.3915 25.9884L46.1815 13.7778L45.4744 13.0706L44.7673 13.7778L14.0206 44.5245Z" fill="url(#paint1_linear)"/>
<path d="M14.0206 44.5245L13.3134 45.2316L14.0206 45.9387L26.2312 58.1487L26.9383 58.8558L27.6454 58.1487L58.3915 27.4026L59.0986 26.6955L58.3915 25.9884L46.1815 13.7778L45.4744 13.0706L44.7673 13.7778L14.0206 44.5245Z" stroke="url(#paint2_linear)" stroke-width="2"/>
<path d="M12.5731 48.4575L11.5521 47.4364L10.9554 48.7513L4.30389 63.4062L4.30382 63.4063C3.7181 64.6974 3.99456 66.2168 4.99754 67.2189L4.99771 67.2191C5.64962 67.8701 6.51981 68.2147 7.40287 68.2147C7.87937 68.2147 8.36002 68.1146 8.81189 67.9083C8.81231 67.9081 8.81272 67.908 8.81314 67.9078L23.4499 61.245L24.7624 60.6475L23.7427 59.6277L12.5731 48.4575Z" fill="#293377" stroke="url(#paint3_linear)" stroke-width="2"/>
<path d="M72.0592 20.415L72.7651 19.708L82.1897 10.2696L82.1898 10.2695V10.2695C83.1627 9.29491 84.6264 9.0034 85.8979 9.5296C87.1703 10.0559 87.9993 11.2971 88.0002 12.6727V12.6733V82.5975C88.0002 84.4769 86.4763 85.9998 84.5979 85.9998H14.7794C13.4041 85.9998 12.1639 85.1713 11.6368 83.901L12.5604 83.5178L11.6368 83.901C11.1094 82.6299 11.4003 81.1671 12.3719 80.1937L12.372 80.1936L21.7968 70.7545L22.5041 70.0461L23.2118 70.7542L26.1763 73.7206C26.1764 73.7206 26.1764 73.7207 26.1765 73.7207C26.1765 73.7208 26.1765 73.7208 26.1765 73.7208C26.4506 73.9948 26.8078 74.1315 27.1683 74.1315C27.5285 74.1315 27.8854 73.995 28.1598 73.7212C28.7076 73.1733 28.7077 72.2856 28.1603 71.7377C28.1603 71.7376 28.1602 71.7375 28.1602 71.7375L25.1918 68.7685L24.4854 68.062L25.1913 67.3549L29.7257 62.8136L30.433 62.1053L31.1406 62.8132L34.1054 65.7793L34.1057 65.7796C34.3797 66.0539 34.7368 66.1906 35.0973 66.1906C35.4571 66.1906 35.8145 66.054 36.0887 65.7797L36.089 65.7795C36.6364 65.2324 36.6368 64.3448 36.0892 63.7967C36.0892 63.7967 36.0891 63.7967 36.0891 63.7967L33.1207 60.827L32.4143 60.1203L33.1204 59.4134L37.6554 54.8727L38.3628 54.1645L39.0703 54.8725L42.0348 57.8389C42.0349 57.8389 42.0349 57.839 42.035 57.8391C42.035 57.8391 42.035 57.8391 42.0351 57.8391C42.3092 58.1131 42.6664 58.2498 43.0269 58.2498C43.3866 58.2498 43.744 58.1132 44.0183 57.8395C44.0184 57.8394 44.0186 57.8392 44.0188 57.839M72.0592 20.415L44.726 55.1489C45.6638 56.0874 45.6632 57.6088 44.7254 58.5466L44.0188 57.839M72.0592 20.415L72.7654 21.1215L75.7339 24.0912L76.4336 23.3919L75.734 24.0913C76.2815 24.6393 76.2812 25.527 75.7337 26.0741L75.7335 26.0743C75.4591 26.3486 75.1024 26.4852 74.7421 26.4852C74.3815 26.4852 74.0245 26.3485 73.7505 26.0741L73.7502 26.0738L70.7854 23.1078L70.0778 22.3999L69.3706 23.1081L64.8362 27.6488L64.1302 28.3558L64.8365 29.0624L67.8049 32.0321L68.5123 31.3252M72.0592 20.415L69.3715 24.5224M44.0188 57.839C44.5657 57.2916 44.5659 56.4035 44.0188 55.8559L44.7222 55.1528L44.0187 55.8558L41.0503 52.8861L40.344 52.1796L41.0499 51.4726L45.5837 46.932L46.2908 46.2237L46.9985 46.9315L49.9638 49.8974M44.0188 57.839L57.8927 41.9566M69.3715 24.5224L65.5437 28.3554L68.5123 31.3252M69.3715 24.5224L69.3709 24.5217L70.0782 23.8148L70.7857 24.5214L70.7851 24.522L73.0429 26.7808C73.5121 27.2506 74.1271 27.4852 74.7421 27.4852C75.357 27.4852 75.9714 27.2506 76.4406 26.7814L69.3715 24.5224ZM68.5123 31.3252L67.805 32.0321C68.3523 32.5799 68.3524 33.4673 67.805 34.0153M68.5123 31.3252C69.45 32.2636 69.45 33.7844 68.5116 34.7229M68.5116 34.7229L67.805 34.0153M68.5116 34.7229L67.8045 34.0158C67.8047 34.0156 67.8048 34.0154 67.805 34.0153M68.5116 34.7229C68.0424 35.1914 67.4281 35.426 66.8131 35.426C66.1981 35.426 65.5832 35.1914 65.1146 34.7222L62.8562 32.4634L62.8568 32.4628L62.1492 31.7562L61.442 32.4633L61.4426 32.4638L57.6148 36.2969L60.5833 39.2666L57.8927 41.9566M67.805 34.0153C67.5305 34.2894 67.1735 34.426 66.8131 34.426C66.4524 34.426 66.0954 34.2892 65.8222 34.0156L65.8218 34.0152L62.8564 31.0492L62.1488 30.3415L61.4416 31.0496L56.9072 35.5903L56.2012 36.2972L56.9075 37.0038L59.876 39.9736L59.8762 39.9738C60.4239 40.5214 60.4236 41.4089 59.8758 41.9564L59.8756 41.9566C59.6011 42.231 59.2443 42.3675 58.8848 42.3675C58.5237 42.3675 58.167 42.2308 57.8927 41.9566M57.8927 41.9566L54.9275 38.9901L54.2198 38.2821L53.5126 38.9905L48.9788 43.5318L48.273 44.2388L48.9792 44.9453L51.9471 47.9144L51.9472 47.9146C52.4949 48.4623 52.4946 49.3504 51.9469 49.8978L51.9461 49.8985C51.6733 50.1718 51.3165 50.3083 50.9558 50.3083C50.5952 50.3083 50.2379 50.1716 49.9638 49.8974M57.8927 41.9566L57.1856 42.6637M57.8927 41.9566L52.6537 50.6052C53.5921 49.6674 53.5928 48.1459 52.6544 47.2075L49.6865 44.2384L53.5137 40.4048L53.513 40.404L54.2202 39.6971L54.9279 40.4036L54.9272 40.4043L57.1856 42.6637M57.8927 41.9566L57.8929 41.9567L57.1856 42.6637M57.8927 41.9566L60.5827 42.6637C60.1135 43.1329 59.4991 43.3675 58.8848 43.3675C58.2692 43.3675 57.6548 43.1329 57.1856 42.6637M49.9638 49.8974L49.9639 49.8975L49.2567 50.6045L49.9638 49.8974ZM44.7259 68.7727L44.7261 68.7724L70.79 42.6685C70.79 42.6685 70.7901 42.6684 70.7902 42.6683C71.1915 42.2668 71.7942 42.1466 72.3185 42.3634C72.8428 42.5803 73.1846 43.092 73.1846 43.659V69.7631C73.1846 70.5371 72.5563 71.1655 71.7823 71.1655H45.7182C45.1517 71.1655 44.6402 70.8241 44.4229 70.3002C44.2056 69.776 44.3255 69.1734 44.7259 68.7727Z" fill="#293377"/>
<path d="M72.0592 20.415L72.7651 19.708L82.1897 10.2696L82.1898 10.2695V10.2695C83.1627 9.29491 84.6264 9.0034 85.8979 9.5296C87.1703 10.0559 87.9993 11.2971 88.0002 12.6727V12.6733V82.5975C88.0002 84.4769 86.4763 85.9998 84.5979 85.9998H14.7794C13.4041 85.9998 12.1639 85.1713 11.6368 83.901L12.5604 83.5178L11.6368 83.901C11.1094 82.6299 11.4003 81.1671 12.3719 80.1937L12.372 80.1936L21.7968 70.7545L22.5041 70.0461L23.2118 70.7542L26.1763 73.7206C26.1764 73.7206 26.1764 73.7207 26.1765 73.7207C26.1765 73.7208 26.1765 73.7208 26.1765 73.7208C26.4506 73.9948 26.8078 74.1315 27.1683 74.1315C27.5285 74.1315 27.8854 73.995 28.1598 73.7212C28.7076 73.1733 28.7077 72.2856 28.1603 71.7377C28.1603 71.7376 28.1602 71.7375 28.1602 71.7375L25.1918 68.7685L24.4854 68.062L25.1913 67.3549L29.7257 62.8136L30.433 62.1053L31.1406 62.8132L34.1054 65.7793L34.1057 65.7796C34.3797 66.0539 34.7368 66.1906 35.0973 66.1906C35.4571 66.1906 35.8145 66.054 36.0887 65.7797L36.089 65.7795C36.6364 65.2324 36.6368 64.3448 36.0892 63.7967C36.0892 63.7967 36.0891 63.7967 36.0891 63.7967L33.1207 60.827L32.4143 60.1203L33.1204 59.4134L37.6554 54.8727L38.3628 54.1645L39.0703 54.8725L42.0348 57.8389C42.0349 57.8389 42.0349 57.839 42.035 57.8391C42.035 57.8391 42.035 57.8391 42.0351 57.8391C42.3092 58.1131 42.6664 58.2498 43.0269 58.2498C43.3866 58.2498 43.744 58.1132 44.0183 57.8395C44.0184 57.8394 44.0186 57.8392 44.0188 57.839M72.0592 20.415L44.726 55.1489C45.6638 56.0874 45.6632 57.6088 44.7254 58.5466L44.0188 57.839M72.0592 20.415L72.7654 21.1215L75.7339 24.0912L76.4336 23.3919L75.734 24.0913C76.2815 24.6393 76.2812 25.527 75.7337 26.0741L75.7335 26.0743C75.4591 26.3486 75.1024 26.4852 74.7421 26.4852C74.3815 26.4852 74.0245 26.3485 73.7505 26.0741L73.7502 26.0738L70.7854 23.1078L70.0778 22.3999L69.3706 23.1081L64.8362 27.6488L64.1302 28.3558L64.8365 29.0624L67.8049 32.0321L68.5123 31.3252M72.0592 20.415L69.3715 24.5224M44.0188 57.839C44.5657 57.2916 44.5659 56.4035 44.0188 55.8559L44.7222 55.1528L44.0187 55.8558L41.0503 52.8861L40.344 52.1796L41.0499 51.4726L45.5837 46.932L46.2908 46.2237L46.9985 46.9315L49.9638 49.8974M44.0188 57.839L57.8927 41.9566M69.3715 24.5224L65.5437 28.3554L68.5123 31.3252M69.3715 24.5224L69.3709 24.5217L70.0782 23.8148L70.7857 24.5214L70.7851 24.522L73.0429 26.7808C73.5121 27.2506 74.1271 27.4852 74.7421 27.4852C75.357 27.4852 75.9714 27.2506 76.4406 26.7814L69.3715 24.5224ZM68.5123 31.3252L67.805 32.0321C68.3523 32.5799 68.3524 33.4673 67.805 34.0153M68.5123 31.3252C69.45 32.2636 69.45 33.7844 68.5116 34.7229M68.5116 34.7229L67.805 34.0153M68.5116 34.7229L67.8045 34.0158C67.8047 34.0156 67.8048 34.0154 67.805 34.0153M68.5116 34.7229C68.0424 35.1914 67.4281 35.426 66.8131 35.426C66.1981 35.426 65.5832 35.1914 65.1146 34.7222L62.8562 32.4634L62.8568 32.4628L62.1492 31.7562L61.442 32.4633L61.4426 32.4638L57.6148 36.2969L60.5833 39.2666L57.8927 41.9566M67.805 34.0153C67.5305 34.2894 67.1735 34.426 66.8131 34.426C66.4524 34.426 66.0954 34.2892 65.8222 34.0156L65.8218 34.0152L62.8564 31.0492L62.1488 30.3415L61.4416 31.0496L56.9072 35.5903L56.2012 36.2972L56.9075 37.0038L59.876 39.9736L59.8762 39.9738C60.4239 40.5214 60.4236 41.4089 59.8758 41.9564L59.8756 41.9566C59.6011 42.231 59.2443 42.3675 58.8848 42.3675C58.5237 42.3675 58.167 42.2308 57.8927 41.9566M57.8927 41.9566L54.9275 38.9901L54.2198 38.2821L53.5126 38.9905L48.9788 43.5318L48.273 44.2388L48.9792 44.9453L51.9471 47.9144L51.9472 47.9146C52.4949 48.4623 52.4946 49.3504 51.9469 49.8978L51.9461 49.8985C51.6733 50.1718 51.3165 50.3083 50.9558 50.3083C50.5952 50.3083 50.2379 50.1716 49.9638 49.8974M57.8927 41.9566L57.1856 42.6637M57.8927 41.9566L52.6537 50.6052C53.5921 49.6674 53.5928 48.1459 52.6544 47.2075L49.6865 44.2384L53.5137 40.4048L53.513 40.404L54.2202 39.6971L54.9279 40.4036L54.9272 40.4043L57.1856 42.6637M57.8927 41.9566L57.8929 41.9567L57.1856 42.6637M57.8927 41.9566L60.5827 42.6637C60.1135 43.1329 59.4991 43.3675 58.8848 43.3675C58.2692 43.3675 57.6548 43.1329 57.1856 42.6637M49.9638 49.8974L49.9639 49.8975L49.2567 50.6045L49.9638 49.8974ZM44.7259 68.7727L44.7261 68.7724L70.79 42.6685C70.79 42.6685 70.7901 42.6684 70.7902 42.6683C71.1915 42.2668 71.7942 42.1466 72.3185 42.3634C72.8428 42.5803 73.1846 43.092 73.1846 43.659V69.7631C73.1846 70.5371 72.5563 71.1655 71.7823 71.1655H45.7182C45.1517 71.1655 44.6402 70.8241 44.4229 70.3002C44.2056 69.776 44.3255 69.1734 44.7259 68.7727Z" fill="url(#paint4_linear)"/>
<path d="M72.0592 20.415L72.7651 19.708L82.1897 10.2696L82.1898 10.2695V10.2695C83.1627 9.29491 84.6264 9.0034 85.8979 9.5296C87.1703 10.0559 87.9993 11.2971 88.0002 12.6727V12.6733V82.5975C88.0002 84.4769 86.4763 85.9998 84.5979 85.9998H14.7794C13.4041 85.9998 12.1639 85.1713 11.6368 83.901L12.5604 83.5178L11.6368 83.901C11.1094 82.6299 11.4003 81.1671 12.3719 80.1937L12.372 80.1936L21.7968 70.7545L22.5041 70.0461L23.2118 70.7542L26.1763 73.7206C26.1764 73.7206 26.1764 73.7207 26.1765 73.7207C26.1765 73.7208 26.1765 73.7208 26.1765 73.7208C26.4506 73.9948 26.8078 74.1315 27.1683 74.1315C27.5285 74.1315 27.8854 73.995 28.1598 73.7212C28.7076 73.1733 28.7077 72.2856 28.1603 71.7377C28.1603 71.7376 28.1602 71.7375 28.1602 71.7375L25.1918 68.7685L24.4854 68.062L25.1913 67.3549L29.7257 62.8136L30.433 62.1053L31.1406 62.8132L34.1054 65.7793L34.1057 65.7796C34.3797 66.0539 34.7368 66.1906 35.0973 66.1906C35.4571 66.1906 35.8145 66.054 36.0887 65.7797L36.089 65.7795C36.6364 65.2324 36.6368 64.3448 36.0892 63.7967C36.0892 63.7967 36.0891 63.7967 36.0891 63.7967L33.1207 60.827L32.4143 60.1203L33.1204 59.4134L37.6554 54.8727L38.3628 54.1645L39.0703 54.8725L42.0348 57.8389C42.0349 57.8389 42.0349 57.839 42.035 57.8391C42.035 57.8391 42.035 57.8391 42.0351 57.8391C42.3092 58.1131 42.6664 58.2498 43.0269 58.2498C43.3866 58.2498 43.744 58.1132 44.0183 57.8395C44.0184 57.8394 44.0186 57.8392 44.0188 57.839M72.0592 20.415L44.726 55.1489C45.6638 56.0874 45.6632 57.6088 44.7254 58.5466L44.0188 57.839M72.0592 20.415L72.7654 21.1215L75.7339 24.0912L76.4336 23.3919L75.734 24.0913C76.2815 24.6393 76.2812 25.527 75.7337 26.0741L75.7335 26.0743C75.4591 26.3486 75.1024 26.4852 74.7421 26.4852C74.3815 26.4852 74.0245 26.3485 73.7505 26.0741L73.7502 26.0738L70.7854 23.1078L70.0778 22.3999L69.3706 23.1081L64.8362 27.6488L64.1302 28.3558L64.8365 29.0624L67.8049 32.0321L68.5123 31.3252M72.0592 20.415L69.3715 24.5224M44.0188 57.839C44.5657 57.2916 44.5659 56.4035 44.0188 55.8559L44.7222 55.1528L44.0187 55.8558L41.0503 52.8861L40.344 52.1796L41.0499 51.4726L45.5837 46.932L46.2908 46.2237L46.9985 46.9315L49.9638 49.8974M44.0188 57.839L57.8927 41.9566M69.3715 24.5224L65.5437 28.3554L68.5123 31.3252M69.3715 24.5224L69.3709 24.5217L70.0782 23.8148L70.7857 24.5214L70.7851 24.522L73.0429 26.7808C73.5121 27.2506 74.1271 27.4852 74.7421 27.4852C75.357 27.4852 75.9714 27.2506 76.4406 26.7814L69.3715 24.5224ZM68.5123 31.3252L67.805 32.0321C68.3523 32.5799 68.3524 33.4673 67.805 34.0153M68.5123 31.3252C69.45 32.2636 69.45 33.7844 68.5116 34.7229M68.5116 34.7229L67.805 34.0153M68.5116 34.7229L67.8045 34.0158C67.8047 34.0156 67.8048 34.0154 67.805 34.0153M68.5116 34.7229C68.0424 35.1914 67.4281 35.426 66.8131 35.426C66.1981 35.426 65.5832 35.1914 65.1146 34.7222L62.8562 32.4634L62.8568 32.4628L62.1492 31.7562L61.442 32.4633L61.4426 32.4638L57.6148 36.2969L60.5833 39.2666L57.8927 41.9566M67.805 34.0153C67.5305 34.2894 67.1735 34.426 66.8131 34.426C66.4524 34.426 66.0954 34.2892 65.8222 34.0156L65.8218 34.0152L62.8564 31.0492L62.1488 30.3415L61.4416 31.0496L56.9072 35.5903L56.2012 36.2972L56.9075 37.0038L59.876 39.9736L59.8762 39.9738C60.4239 40.5214 60.4236 41.4089 59.8758 41.9564L59.8756 41.9566C59.6011 42.231 59.2443 42.3675 58.8848 42.3675C58.5237 42.3675 58.167 42.2308 57.8927 41.9566M57.8927 41.9566L54.9275 38.9901L54.2198 38.2821L53.5126 38.9905L48.9788 43.5318L48.273 44.2388L48.9792 44.9453L51.9471 47.9144L51.9472 47.9146C52.4949 48.4623 52.4946 49.3504 51.9469 49.8978L51.9461 49.8985C51.6733 50.1718 51.3165 50.3083 50.9558 50.3083C50.5952 50.3083 50.2379 50.1716 49.9638 49.8974M57.8927 41.9566L57.1856 42.6637M57.8927 41.9566L52.6537 50.6052C53.5921 49.6674 53.5928 48.1459 52.6544 47.2075L49.6865 44.2384L53.5137 40.4048L53.513 40.404L54.2202 39.6971L54.9279 40.4036L54.9272 40.4043L57.1856 42.6637M57.8927 41.9566L57.8929 41.9567L57.1856 42.6637M57.8927 41.9566L60.5827 42.6637C60.1135 43.1329 59.4991 43.3675 58.8848 43.3675C58.2692 43.3675 57.6548 43.1329 57.1856 42.6637M49.9638 49.8974L49.9639 49.8975L49.2567 50.6045L49.9638 49.8974ZM44.7259 68.7727L44.7261 68.7724L70.79 42.6685C70.79 42.6685 70.7901 42.6684 70.7902 42.6683C71.1915 42.2668 71.7942 42.1466 72.3185 42.3634C72.8428 42.5803 73.1846 43.092 73.1846 43.659V69.7631C73.1846 70.5371 72.5563 71.1655 71.7823 71.1655H45.7182C45.1517 71.1655 44.6402 70.8241 44.4229 70.3002C44.2056 69.776 44.3255 69.1734 44.7259 68.7727Z" stroke="url(#paint5_linear)" stroke-width="2"/>
</g>
<defs>
<filter id="filter0_d" x="0" y="-1" width="92" height="92" filterUnits="userSpaceOnUse" color-interpolation-filters="sRGB">
<feFlood flood-opacity="0" result="BackgroundImageFix"/>
<feColorMatrix in="SourceAlpha" type="matrix" values="0 0 0 0 0 0 0 0 0 0 0 0 0 0 0 0 0 0 127 0"/>
<feOffset dx="-1" dy="1"/>
<feGaussianBlur stdDeviation="1"/>
<feColorMatrix type="matrix" values="0 0 0 0 0 0 0 0 0 0 0 0 0 0 0 0 0 0 0.2 0"/>
<feBlend mode="normal" in2="BackgroundImageFix" result="effect1_dropShadow"/>
<feBlend mode="normal" in="SourceGraphic" in2="effect1_dropShadow" result="shape"/>
</filter>
<linearGradient id="paint0_linear" x1="58.9883" y1="3.00098" x2="58.9883" y2="23.2851" gradientUnits="userSpaceOnUse">
<stop stop-color="white"/>
<stop offset="0.53125" stop-color="#8D8D8D"/>
<stop offset="1" stop-color="white"/>
</linearGradient>
<linearGradient id="paint1_linear" x1="36.206" y1="14.4849" x2="36.206" y2="57.4416" gradientUnits="userSpaceOnUse">
<stop stop-color="white" stop-opacity="0.49"/>
<stop offset="0.46875" stop-color="white" stop-opacity="0"/>
</linearGradient>
<linearGradient id="paint2_linear" x1="36.206" y1="14.4849" x2="36.206" y2="57.4416" gradientUnits="userSpaceOnUse">
<stop stop-color="white"/>
<stop offset="0.53125" stop-color="#8D8D8D"/>
<stop offset="1" stop-color="white"/>
</linearGradient>
<linearGradient id="paint3_linear" x1="14.0177" y1="49.1646" x2="14.0177" y2="67.2147" gradientUnits="userSpaceOnUse">
<stop stop-color="white"/>
<stop offset="0.53125" stop-color="#8D8D8D"/>
<stop offset="1" stop-color="white"/>
</linearGradient>
<linearGradient id="paint4_linear" x1="49.6886" y1="10.271" x2="49.6886" y2="84.9998" gradientUnits="userSpaceOnUse">
<stop stop-color="white" stop-opacity="0.49"/>
<stop offset="0.46875" stop-color="white" stop-opacity="0"/>
</linearGradient>
<linearGradient id="paint5_linear" x1="49.6886" y1="10.271" x2="49.6886" y2="84.9998" gradientUnits="userSpaceOnUse">
<stop stop-color="white"/>
<stop offset="0.53125" stop-color="#8D8D8D"/>
<stop offset="1" stop-color="white"/>
</linearGradient>
</defs>
</svg>
