<svg width="32" height="32" viewBox="0 0 32 32" fill="none" xmlns="http://www.w3.org/2000/svg">
<path d="M22.0001 10.1279L14.2561 18.0159L10.2881 14.0319L8.16016 16.1599L14.4161 22.3999L24.4642 12.6559L22.0001 10.1279Z" fill="white"/>
<path d="M16 0C7.16347 0 0 7.16347 0 16C0 24.8365 7.16347 31.9999 16 31.9999C24.8365 31.9999 31.9999 24.8365 31.9999 16C31.9999 7.16347 24.8365 0 16 0ZM16 29.104C8.76284 29.104 2.89597 23.2371 2.89597 16C2.89597 8.76284 8.76284 2.89597 16 2.89597C23.2334 2.90475 29.0951 8.76644 29.104 16C29.104 23.2372 23.2372 29.104 16 29.104Z" fill="white"/>
</svg>
