<svg width="30" height="26" viewBox="0 0 30 26" fill="none" xmlns="http://www.w3.org/2000/svg">
<path d="M1.25 11.7498H26.1869L16.6381 2.65482C16.1381 2.17857 16.1187 1.38732 16.595 0.887317C17.0706 0.387942 17.8619 0.367941 18.3625 0.844191L29.2675 11.2317C29.7394 11.7042 30 12.3317 30 12.9998C30 13.6673 29.7394 14.2954 29.2456 14.7886L18.3619 25.1548C18.12 25.3854 17.81 25.4998 17.5 25.4998C17.17 25.4998 16.84 25.3698 16.5944 25.1117C16.1181 24.6117 16.1375 23.8211 16.6375 23.3448L26.2262 14.2498H1.25C0.559999 14.2498 0 13.6898 0 12.9998C0 12.3098 0.559999 11.7498 1.25 11.7498Z" fill="#A5A4A4"/>
</svg>
