<svg width="65" height="65" viewBox="0 0 65 65" fill="none" xmlns="http://www.w3.org/2000/svg">
<path d="M26 47.125L45.5 32.5L26 17.875V47.125Z" fill="white"/>
<path d="M32.4999 0C14.5438 0 0 14.5438 0 32.4999C0 50.4561 14.5438 64.9998 32.4999 64.9998C50.4561 64.9998 65 50.4562 65 32.4999C65 14.5436 50.4562 0 32.4999 0ZM32.4999 58.4999C18.1674 58.4999 6.49989 46.8324 6.49989 32.4999C6.49989 18.1674 18.1674 6.50004 32.4999 6.50004C46.8324 6.50004 58.5 18.1674 58.5 32.4999C58.5 46.8324 46.8324 58.4999 32.4999 58.4999Z" fill="white"/>
</svg>
