<svg width="30" height="26" viewBox="0 0 30 26" fill="none" xmlns="http://www.w3.org/2000/svg">
<path d="M28.75 11.7498H3.81312L13.3619 2.65482C13.8619 2.17857 13.8813 1.38732 13.405 0.887317C12.9294 0.387942 12.1381 0.367941 11.6375 0.844191L0.7325 11.2317C0.260625 11.7042 0 12.3317 0 12.9998C0 13.6673 0.260625 14.2954 0.754375 14.7886L11.6381 25.1548C11.88 25.3854 12.19 25.4998 12.5 25.4998C12.83 25.4998 13.16 25.3698 13.4056 25.1117C13.8819 24.6117 13.8625 23.8211 13.3625 23.3448L3.77375 14.2498H28.75C29.44 14.2498 30 13.6898 30 12.9998C30 12.3098 29.44 11.7498 28.75 11.7498Z" fill="#293377"/>
</svg>
