<svg width="36" height="37" viewBox="0 0 36 37" fill="none" xmlns="http://www.w3.org/2000/svg">
<g clip-path="url(#clip0)">
<path d="M1.49991 12.7623C2.32938 12.7623 3.00009 12.0916 3.00009 11.2621V5.26221C3.00009 4.43411 3.67191 3.7623 4.5 3.7623H10.4999C11.3294 3.7623 12.0001 3.09158 12.0001 2.26212C12.0001 1.43265 11.3294 0.762207 10.4999 0.762207H4.5C2.01901 0.762207 0 2.78122 0 5.26221V11.2621C0 12.0916 0.670441 12.7623 1.49991 12.7623Z" fill="white"/>
<path d="M34.5002 24.7622C33.6707 24.7622 33 25.4329 33 26.2624V32.2623C33 33.0904 32.3282 33.7622 31.5001 33.7622H25.5002C24.6707 33.7622 24 34.4329 24 35.2624C24 36.0919 24.6707 36.7623 25.5002 36.7623H31.5001C33.9811 36.7623 36.0001 34.7433 36.0001 32.2623V26.2624C36.0001 25.4329 35.3297 24.7622 34.5002 24.7622Z" fill="white"/>
<path d="M10.4999 33.7622H4.5C3.67191 33.7622 3.00009 33.0904 3.00009 32.2623V26.2624C3.00009 25.4329 2.32938 24.7622 1.49991 24.7622C0.670441 24.7622 0 25.4329 0 26.2624V32.2623C0 34.7433 2.01901 36.7623 4.5 36.7623H10.4999C11.3294 36.7623 12.0001 36.0919 12.0001 35.2624C12.0001 34.4329 11.3294 33.7622 10.4999 33.7622Z" fill="white"/>
<path d="M31.5001 0.762207H25.5002C24.6707 0.762207 24 1.43265 24 2.26212C24 3.09158 24.6707 3.7623 25.5002 3.7623H31.5001C32.3282 3.7623 33 4.43411 33 5.26221V11.2621C33 12.0916 33.6707 12.7623 34.5002 12.7623C35.3297 12.7623 36.0001 12.0916 36.0001 11.2621V5.26221C36.0001 2.78122 33.9811 0.762207 31.5001 0.762207Z" fill="white"/>
<path d="M7.5 12.387V25.1372C7.5 27.4128 9.34927 29.262 11.6248 29.262H24.375C26.6505 29.262 28.4998 27.4128 28.4998 25.1372V12.387C28.4998 10.1115 26.6505 8.26221 24.375 8.26221H11.6248C9.34927 8.26221 7.5 10.1115 7.5 12.387Z" fill="white"/>
</g>
<defs>
<clipPath id="clip0">
<rect y="0.762207" width="36" height="36" fill="white"/>
</clipPath>
</defs>
</svg>
